<?xml version="1.0" encoding="UTF-8" standalone="no"?>
<!DOCTYPE svg PUBLIC "-//W3C//DTD SVG 1.1//EN"
 "http://www.w3.org/Graphics/SVG/1.1/DTD/svg11.dtd">
<!-- Generated by graphviz version 2.28.0 (20110507.0327)
 -->
<!-- Title: Tree Pages: 1 -->
<svg width="930pt" height="374pt"
 viewBox="0.00 0.00 930.00 374.00" xmlns="http://www.w3.org/2000/svg" xmlns:xlink="http://www.w3.org/1999/xlink">
<g id="graph1" class="graph" transform="scale(1 1) rotate(0) translate(4 370)">
<title>Tree</title>
<polygon fill="white" stroke="white" points="-4,5 -4,-370 927,-370 927,5 -4,5"/>
<!-- 0 -->
<g id="node1" class="node"><title>0</title>
<polygon fill="#e58139" fill-opacity="0.094118" stroke="black" points="509,-366 391,-366 391,-298 509,-298 509,-366"/>
<text text-anchor="middle" x="450" y="-350.8" font-family="Times New Roman,serif" font-size="14.00">LSTAT &lt;= 9.95</text>
<text text-anchor="middle" x="450" y="-335.8" font-family="Times New Roman,serif" font-size="14.00">samples = 379</text>
<text text-anchor="middle" x="450" y="-320.8" font-family="Times New Roman,serif" font-size="14.00">value = [199, 180]</text>
<text text-anchor="middle" x="450" y="-305.8" font-family="Times New Roman,serif" font-size="14.00">class = Yes</text>
</g>
<!-- 1 -->
<g id="node2" class="node"><title>1</title>
<polygon fill="#399de5" fill-opacity="0.839216" stroke="black" points="418.25,-262 307.75,-262 307.75,-194 418.25,-194 418.25,-262"/>
<text text-anchor="middle" x="363" y="-246.8" font-family="Times New Roman,serif" font-size="14.00">RM &lt;= 6.12</text>
<text text-anchor="middle" x="363" y="-231.8" font-family="Times New Roman,serif" font-size="14.00">samples = 165</text>
<text text-anchor="middle" x="363" y="-216.8" font-family="Times New Roman,serif" font-size="14.00">value = [23, 142]</text>
<text text-anchor="middle" x="363" y="-201.8" font-family="Times New Roman,serif" font-size="14.00">class = No</text>
</g>
<!-- 0&#45;&gt;1 -->
<g id="edge2" class="edge"><title>0&#45;&gt;1</title>
<path fill="none" stroke="black" d="M421.754,-297.884C414.156,-288.976 405.848,-279.235 397.934,-269.957"/>
<polygon fill="black" stroke="black" points="400.555,-267.636 391.402,-262.299 395.229,-272.179 400.555,-267.636"/>
<text text-anchor="middle" x="389.424" y="-283.521" font-family="Times New Roman,serif" font-size="14.00">True</text>
</g>
<!-- 8 -->
<g id="node16" class="node"><title>8</title>
<polygon fill="#e58139" fill-opacity="0.784314" stroke="black" points="593.25,-262 482.75,-262 482.75,-194 593.25,-194 593.25,-262"/>
<text text-anchor="middle" x="538" y="-246.8" font-family="Times New Roman,serif" font-size="14.00">AGE &lt;= 69.95</text>
<text text-anchor="middle" x="538" y="-231.8" font-family="Times New Roman,serif" font-size="14.00">samples = 214</text>
<text text-anchor="middle" x="538" y="-216.8" font-family="Times New Roman,serif" font-size="14.00">value = [176, 38]</text>
<text text-anchor="middle" x="538" y="-201.8" font-family="Times New Roman,serif" font-size="14.00">class = Yes</text>
</g>
<!-- 0&#45;&gt;8 -->
<g id="edge16" class="edge"><title>0&#45;&gt;8</title>
<path fill="none" stroke="black" d="M478.571,-297.884C486.256,-288.976 494.66,-279.235 502.665,-269.957"/>
<polygon fill="black" stroke="black" points="505.389,-272.157 509.271,-262.299 500.089,-267.585 505.389,-272.157"/>
<text text-anchor="middle" x="511.108" y="-283.532" font-family="Times New Roman,serif" font-size="14.00">False</text>
</g>
<!-- 2 -->
<g id="node4" class="node"><title>2</title>
<polygon fill="#e58139" fill-opacity="0.549020" stroke="black" points="215.25,-158 108.75,-158 108.75,-90 215.25,-90 215.25,-158"/>
<text text-anchor="middle" x="162" y="-142.8" font-family="Times New Roman,serif" font-size="14.00">CRIM &lt;= 1.777</text>
<text text-anchor="middle" x="162" y="-127.8" font-family="Times New Roman,serif" font-size="14.00">samples = 29</text>
<text text-anchor="middle" x="162" y="-112.8" font-family="Times New Roman,serif" font-size="14.00">value = [20, 9]</text>
<text text-anchor="middle" x="162" y="-97.8" font-family="Times New Roman,serif" font-size="14.00">class = Yes</text>
</g>
<!-- 1&#45;&gt;2 -->
<g id="edge4" class="edge"><title>1&#45;&gt;2</title>
<path fill="none" stroke="black" d="M307.544,-198.858C281.869,-185.829 251.25,-170.291 224.734,-156.835"/>
<polygon fill="black" stroke="black" points="226.043,-153.575 215.542,-152.17 222.875,-159.817 226.043,-153.575"/>
</g>
<!-- 5 -->
<g id="node10" class="node"><title>5</title>
<polygon fill="#399de5" fill-opacity="0.976471" stroke="black" points="415,-158 311,-158 311,-90 415,-90 415,-158"/>
<text text-anchor="middle" x="363" y="-142.8" font-family="Times New Roman,serif" font-size="14.00">TAX &lt;= 416.5</text>
<text text-anchor="middle" x="363" y="-127.8" font-family="Times New Roman,serif" font-size="14.00">samples = 136</text>
<text text-anchor="middle" x="363" y="-112.8" font-family="Times New Roman,serif" font-size="14.00">value = [3, 133]</text>
<text text-anchor="middle" x="363" y="-97.8" font-family="Times New Roman,serif" font-size="14.00">class = No</text>
</g>
<!-- 1&#45;&gt;5 -->
<g id="edge10" class="edge"><title>1&#45;&gt;5</title>
<path fill="none" stroke="black" d="M363,-193.884C363,-185.778 363,-176.982 363,-168.472"/>
<polygon fill="black" stroke="black" points="366.5,-168.299 363,-158.299 359.5,-168.299 366.5,-168.299"/>
</g>
<!-- 3 -->
<g id="node6" class="node"><title>3</title>
<polygon fill="#e58139" fill-opacity="0.749020" stroke="black" points="98,-53.5 0,-53.5 0,-0.5 98,-0.5 98,-53.5"/>
<text text-anchor="middle" x="49" y="-38.3" font-family="Times New Roman,serif" font-size="14.00">samples = 25</text>
<text text-anchor="middle" x="49" y="-23.3" font-family="Times New Roman,serif" font-size="14.00">value = [20, 5]</text>
<text text-anchor="middle" x="49" y="-8.3" font-family="Times New Roman,serif" font-size="14.00">class = Yes</text>
</g>
<!-- 2&#45;&gt;3 -->
<g id="edge6" class="edge"><title>2&#45;&gt;3</title>
<path fill="none" stroke="black" d="M122.478,-89.7736C110.998,-80.1224 98.4875,-69.6045 87.097,-60.0284"/>
<polygon fill="black" stroke="black" points="89.3233,-57.3276 79.4166,-53.5715 84.8187,-62.6857 89.3233,-57.3276"/>
</g>
<!-- 4 -->
<g id="node8" class="node"><title>4</title>
<polygon fill="#399de5" stroke="black" points="207.25,-53.5 116.75,-53.5 116.75,-0.5 207.25,-0.5 207.25,-53.5"/>
<text text-anchor="middle" x="162" y="-38.3" font-family="Times New Roman,serif" font-size="14.00">samples = 4</text>
<text text-anchor="middle" x="162" y="-23.3" font-family="Times New Roman,serif" font-size="14.00">value = [0, 4]</text>
<text text-anchor="middle" x="162" y="-8.3" font-family="Times New Roman,serif" font-size="14.00">class = No</text>
</g>
<!-- 2&#45;&gt;4 -->
<g id="edge8" class="edge"><title>2&#45;&gt;4</title>
<path fill="none" stroke="black" d="M162,-89.7736C162,-81.3288 162,-72.2204 162,-63.6601"/>
<polygon fill="black" stroke="black" points="165.5,-63.5715 162,-53.5715 158.5,-63.5715 165.5,-63.5715"/>
</g>
<!-- 6 -->
<g id="node12" class="node"><title>6</title>
<polygon fill="#399de5" fill-opacity="0.992157" stroke="black" points="330,-53.5 226,-53.5 226,-0.5 330,-0.5 330,-53.5"/>
<text text-anchor="middle" x="278" y="-38.3" font-family="Times New Roman,serif" font-size="14.00">samples = 128</text>
<text text-anchor="middle" x="278" y="-23.3" font-family="Times New Roman,serif" font-size="14.00">value = [1, 127]</text>
<text text-anchor="middle" x="278" y="-8.3" font-family="Times New Roman,serif" font-size="14.00">class = No</text>
</g>
<!-- 5&#45;&gt;6 -->
<g id="edge12" class="edge"><title>5&#45;&gt;6</title>
<path fill="none" stroke="black" d="M333.271,-89.7736C324.968,-80.4936 315.948,-70.4123 307.649,-61.1374"/>
<polygon fill="black" stroke="black" points="310.156,-58.6901 300.88,-53.5715 304.939,-63.3577 310.156,-58.6901"/>
</g>
<!-- 7 -->
<g id="node14" class="node"><title>7</title>
<polygon fill="#399de5" fill-opacity="0.666667" stroke="black" points="439.25,-53.5 348.75,-53.5 348.75,-0.5 439.25,-0.5 439.25,-53.5"/>
<text text-anchor="middle" x="394" y="-38.3" font-family="Times New Roman,serif" font-size="14.00">samples = 8</text>
<text text-anchor="middle" x="394" y="-23.3" font-family="Times New Roman,serif" font-size="14.00">value = [2, 6]</text>
<text text-anchor="middle" x="394" y="-8.3" font-family="Times New Roman,serif" font-size="14.00">class = No</text>
</g>
<!-- 5&#45;&gt;7 -->
<g id="edge14" class="edge"><title>5&#45;&gt;7</title>
<path fill="none" stroke="black" d="M373.842,-89.7736C376.659,-81.1432 379.701,-71.8198 382.547,-63.0965"/>
<polygon fill="black" stroke="black" points="385.881,-64.1639 385.656,-53.5715 379.226,-61.9924 385.881,-64.1639"/>
</g>
<!-- 9 -->
<g id="node18" class="node"><title>9</title>
<polygon fill="#e58139" fill-opacity="0.266667" stroke="black" points="590,-158 486,-158 486,-90 590,-90 590,-158"/>
<text text-anchor="middle" x="538" y="-142.8" font-family="Times New Roman,serif" font-size="14.00">NOX &lt;= 0.476</text>
<text text-anchor="middle" x="538" y="-127.8" font-family="Times New Roman,serif" font-size="14.00">samples = 52</text>
<text text-anchor="middle" x="538" y="-112.8" font-family="Times New Roman,serif" font-size="14.00">value = [30, 22]</text>
<text text-anchor="middle" x="538" y="-97.8" font-family="Times New Roman,serif" font-size="14.00">class = Yes</text>
</g>
<!-- 8&#45;&gt;9 -->
<g id="edge18" class="edge"><title>8&#45;&gt;9</title>
<path fill="none" stroke="black" d="M538,-193.884C538,-185.778 538,-176.982 538,-168.472"/>
<polygon fill="black" stroke="black" points="541.5,-168.299 538,-158.299 534.5,-168.299 541.5,-168.299"/>
</g>
<!-- 12 -->
<g id="node24" class="node"><title>12</title>
<polygon fill="#e58139" fill-opacity="0.890196" stroke="black" points="809,-158 687,-158 687,-90 809,-90 809,-158"/>
<text text-anchor="middle" x="748" y="-142.8" font-family="Times New Roman,serif" font-size="14.00">LSTAT &lt;= 14.895</text>
<text text-anchor="middle" x="748" y="-127.8" font-family="Times New Roman,serif" font-size="14.00">samples = 162</text>
<text text-anchor="middle" x="748" y="-112.8" font-family="Times New Roman,serif" font-size="14.00">value = [146, 16]</text>
<text text-anchor="middle" x="748" y="-97.8" font-family="Times New Roman,serif" font-size="14.00">class = Yes</text>
</g>
<!-- 8&#45;&gt;12 -->
<g id="edge24" class="edge"><title>8&#45;&gt;12</title>
<path fill="none" stroke="black" d="M593.45,-200.067C619.215,-187.553 650.146,-172.529 677.544,-159.221"/>
<polygon fill="black" stroke="black" points="679.222,-162.297 686.688,-154.78 676.164,-156.001 679.222,-162.297"/>
</g>
<!-- 10 -->
<g id="node20" class="node"><title>10</title>
<polygon fill="#e58139" fill-opacity="0.843137" stroke="black" points="556,-53.5 458,-53.5 458,-0.5 556,-0.5 556,-53.5"/>
<text text-anchor="middle" x="507" y="-38.3" font-family="Times New Roman,serif" font-size="14.00">samples = 22</text>
<text text-anchor="middle" x="507" y="-23.3" font-family="Times New Roman,serif" font-size="14.00">value = [19, 3]</text>
<text text-anchor="middle" x="507" y="-8.3" font-family="Times New Roman,serif" font-size="14.00">class = Yes</text>
</g>
<!-- 9&#45;&gt;10 -->
<g id="edge20" class="edge"><title>9&#45;&gt;10</title>
<path fill="none" stroke="black" d="M527.158,-89.7736C524.341,-81.1432 521.299,-71.8198 518.453,-63.0965"/>
<polygon fill="black" stroke="black" points="521.774,-61.9924 515.344,-53.5715 515.119,-64.1639 521.774,-61.9924"/>
</g>
<!-- 11 -->
<g id="node22" class="node"><title>11</title>
<polygon fill="#399de5" fill-opacity="0.419608" stroke="black" points="678,-53.5 574,-53.5 574,-0.5 678,-0.5 678,-53.5"/>
<text text-anchor="middle" x="626" y="-38.3" font-family="Times New Roman,serif" font-size="14.00">samples = 30</text>
<text text-anchor="middle" x="626" y="-23.3" font-family="Times New Roman,serif" font-size="14.00">value = [11, 19]</text>
<text text-anchor="middle" x="626" y="-8.3" font-family="Times New Roman,serif" font-size="14.00">class = No</text>
</g>
<!-- 9&#45;&gt;11 -->
<g id="edge22" class="edge"><title>9&#45;&gt;11</title>
<path fill="none" stroke="black" d="M568.778,-89.7736C577.374,-80.4936 586.713,-70.4123 595.304,-61.1374"/>
<polygon fill="black" stroke="black" points="598.085,-63.2862 602.313,-53.5715 592.949,-58.5292 598.085,-63.2862"/>
</g>
<!-- 13 -->
<g id="node26" class="node"><title>13</title>
<polygon fill="#e58139" fill-opacity="0.666667" stroke="black" points="800,-53.5 696,-53.5 696,-0.5 800,-0.5 800,-53.5"/>
<text text-anchor="middle" x="748" y="-38.3" font-family="Times New Roman,serif" font-size="14.00">samples = 48</text>
<text text-anchor="middle" x="748" y="-23.3" font-family="Times New Roman,serif" font-size="14.00">value = [36, 12]</text>
<text text-anchor="middle" x="748" y="-8.3" font-family="Times New Roman,serif" font-size="14.00">class = Yes</text>
</g>
<!-- 12&#45;&gt;13 -->
<g id="edge26" class="edge"><title>12&#45;&gt;13</title>
<path fill="none" stroke="black" d="M748,-89.7736C748,-81.3288 748,-72.2204 748,-63.6601"/>
<polygon fill="black" stroke="black" points="751.5,-63.5715 748,-53.5715 744.5,-63.5715 751.5,-63.5715"/>
</g>
<!-- 14 -->
<g id="node28" class="node"><title>14</title>
<polygon fill="#e58139" fill-opacity="0.964706" stroke="black" points="922,-53.5 818,-53.5 818,-0.5 922,-0.5 922,-53.5"/>
<text text-anchor="middle" x="870" y="-38.3" font-family="Times New Roman,serif" font-size="14.00">samples = 114</text>
<text text-anchor="middle" x="870" y="-23.3" font-family="Times New Roman,serif" font-size="14.00">value = [110, 4]</text>
<text text-anchor="middle" x="870" y="-8.3" font-family="Times New Roman,serif" font-size="14.00">class = Yes</text>
</g>
<!-- 12&#45;&gt;14 -->
<g id="edge28" class="edge"><title>12&#45;&gt;14</title>
<path fill="none" stroke="black" d="M790.67,-89.7736C803.183,-80.0296 816.831,-69.4022 829.223,-59.7524"/>
<polygon fill="black" stroke="black" points="831.421,-62.4769 837.161,-53.5715 827.12,-56.9539 831.421,-62.4769"/>
</g>
</g>
</svg>
