<?xml version="1.0" encoding="UTF-8" standalone="no"?>
<!DOCTYPE svg PUBLIC "-//W3C//DTD SVG 1.1//EN"
 "http://www.w3.org/Graphics/SVG/1.1/DTD/svg11.dtd">
<!-- Generated by graphviz version 2.28.0 (20110507.0327)
 -->
<!-- Title: Tree Pages: 1 -->
<svg width="1575pt" height="478pt"
 viewBox="0.00 0.00 1575.00 478.00" xmlns="http://www.w3.org/2000/svg" xmlns:xlink="http://www.w3.org/1999/xlink">
<g id="graph1" class="graph" transform="scale(1 1) rotate(0) translate(4 474)">
<title>Tree</title>
<polygon fill="white" stroke="white" points="-4,5 -4,-474 1572,-474 1572,5 -4,5"/>
<!-- 0 -->
<g id="node1" class="node"><title>0</title>
<polygon fill="#e58139" fill-opacity="0.094118" stroke="black" points="723,-470 605,-470 605,-402 723,-402 723,-470"/>
<text text-anchor="middle" x="664" y="-454.8" font-family="Times New Roman,serif" font-size="14.00">LSTAT &lt;= 9.95</text>
<text text-anchor="middle" x="664" y="-439.8" font-family="Times New Roman,serif" font-size="14.00">samples = 379</text>
<text text-anchor="middle" x="664" y="-424.8" font-family="Times New Roman,serif" font-size="14.00">value = [199, 180]</text>
<text text-anchor="middle" x="664" y="-409.8" font-family="Times New Roman,serif" font-size="14.00">class = Yes</text>
</g>
<!-- 1 -->
<g id="node2" class="node"><title>1</title>
<polygon fill="#399de5" fill-opacity="0.839216" stroke="black" points="504.25,-366 393.75,-366 393.75,-298 504.25,-298 504.25,-366"/>
<text text-anchor="middle" x="449" y="-350.8" font-family="Times New Roman,serif" font-size="14.00">RM &lt;= 6.12</text>
<text text-anchor="middle" x="449" y="-335.8" font-family="Times New Roman,serif" font-size="14.00">samples = 165</text>
<text text-anchor="middle" x="449" y="-320.8" font-family="Times New Roman,serif" font-size="14.00">value = [23, 142]</text>
<text text-anchor="middle" x="449" y="-305.8" font-family="Times New Roman,serif" font-size="14.00">class = No</text>
</g>
<!-- 0&#45;&gt;1 -->
<g id="edge2" class="edge"><title>0&#45;&gt;1</title>
<path fill="none" stroke="black" d="M604.966,-406.993C576.698,-393.582 542.776,-377.489 513.797,-363.741"/>
<polygon fill="black" stroke="black" points="515.11,-360.49 504.575,-359.366 512.11,-366.814 515.11,-360.49"/>
<text text-anchor="middle" x="512.97" y="-379.215" font-family="Times New Roman,serif" font-size="14.00">True</text>
</g>
<!-- 14 -->
<g id="node28" class="node"><title>14</title>
<polygon fill="#e58139" fill-opacity="0.784314" stroke="black" points="949.25,-366 838.75,-366 838.75,-298 949.25,-298 949.25,-366"/>
<text text-anchor="middle" x="894" y="-350.8" font-family="Times New Roman,serif" font-size="14.00">AGE &lt;= 69.95</text>
<text text-anchor="middle" x="894" y="-335.8" font-family="Times New Roman,serif" font-size="14.00">samples = 214</text>
<text text-anchor="middle" x="894" y="-320.8" font-family="Times New Roman,serif" font-size="14.00">value = [176, 38]</text>
<text text-anchor="middle" x="894" y="-305.8" font-family="Times New Roman,serif" font-size="14.00">class = Yes</text>
</g>
<!-- 0&#45;&gt;14 -->
<g id="edge28" class="edge"><title>0&#45;&gt;14</title>
<path fill="none" stroke="black" d="M723.231,-408.732C755.714,-394.327 796.031,-376.447 829.333,-361.678"/>
<polygon fill="black" stroke="black" points="830.805,-364.854 838.527,-357.601 827.967,-358.456 830.805,-364.854"/>
<text text-anchor="middle" x="829.534" y="-377.227" font-family="Times New Roman,serif" font-size="14.00">False</text>
</g>
<!-- 2 -->
<g id="node4" class="node"><title>2</title>
<polygon fill="#e58139" fill-opacity="0.549020" stroke="black" points="208,-262 110,-262 110,-194 208,-194 208,-262"/>
<text text-anchor="middle" x="159" y="-246.8" font-family="Times New Roman,serif" font-size="14.00">DIS &lt;= 2.285</text>
<text text-anchor="middle" x="159" y="-231.8" font-family="Times New Roman,serif" font-size="14.00">samples = 29</text>
<text text-anchor="middle" x="159" y="-216.8" font-family="Times New Roman,serif" font-size="14.00">value = [20, 9]</text>
<text text-anchor="middle" x="159" y="-201.8" font-family="Times New Roman,serif" font-size="14.00">class = Yes</text>
</g>
<!-- 1&#45;&gt;2 -->
<g id="edge4" class="edge"><title>1&#45;&gt;2</title>
<path fill="none" stroke="black" d="M393.428,-311.454C343.059,-293.738 269.069,-267.714 217.738,-249.66"/>
<polygon fill="black" stroke="black" points="218.703,-246.289 208.109,-246.273 216.381,-252.892 218.703,-246.289"/>
</g>
<!-- 7 -->
<g id="node14" class="node"><title>7</title>
<polygon fill="#399de5" fill-opacity="0.976471" stroke="black" points="501,-262 397,-262 397,-194 501,-194 501,-262"/>
<text text-anchor="middle" x="449" y="-246.8" font-family="Times New Roman,serif" font-size="14.00">TAX &lt;= 416.5</text>
<text text-anchor="middle" x="449" y="-231.8" font-family="Times New Roman,serif" font-size="14.00">samples = 136</text>
<text text-anchor="middle" x="449" y="-216.8" font-family="Times New Roman,serif" font-size="14.00">value = [3, 133]</text>
<text text-anchor="middle" x="449" y="-201.8" font-family="Times New Roman,serif" font-size="14.00">class = No</text>
</g>
<!-- 1&#45;&gt;7 -->
<g id="edge14" class="edge"><title>1&#45;&gt;7</title>
<path fill="none" stroke="black" d="M449,-297.884C449,-289.778 449,-280.982 449,-272.472"/>
<polygon fill="black" stroke="black" points="452.5,-272.299 449,-262.299 445.5,-272.299 452.5,-272.299"/>
</g>
<!-- 3 -->
<g id="node6" class="node"><title>3</title>
<polygon fill="#399de5" stroke="black" points="90.25,-150.5 -0.25,-150.5 -0.25,-97.5 90.25,-97.5 90.25,-150.5"/>
<text text-anchor="middle" x="45" y="-135.3" font-family="Times New Roman,serif" font-size="14.00">samples = 4</text>
<text text-anchor="middle" x="45" y="-120.3" font-family="Times New Roman,serif" font-size="14.00">value = [0, 4]</text>
<text text-anchor="middle" x="45" y="-105.3" font-family="Times New Roman,serif" font-size="14.00">class = No</text>
</g>
<!-- 2&#45;&gt;3 -->
<g id="edge6" class="edge"><title>2&#45;&gt;3</title>
<path fill="none" stroke="black" d="M121.987,-193.884C108.835,-182.116 94.0575,-168.894 80.992,-157.203"/>
<polygon fill="black" stroke="black" points="83.3085,-154.58 73.5223,-150.52 78.6409,-159.796 83.3085,-154.58"/>
</g>
<!-- 4 -->
<g id="node8" class="node"><title>4</title>
<polygon fill="#e58139" fill-opacity="0.749020" stroke="black" points="209,-158 109,-158 109,-90 209,-90 209,-158"/>
<text text-anchor="middle" x="159" y="-142.8" font-family="Times New Roman,serif" font-size="14.00">AGE &lt;= 35.75</text>
<text text-anchor="middle" x="159" y="-127.8" font-family="Times New Roman,serif" font-size="14.00">samples = 25</text>
<text text-anchor="middle" x="159" y="-112.8" font-family="Times New Roman,serif" font-size="14.00">value = [20, 5]</text>
<text text-anchor="middle" x="159" y="-97.8" font-family="Times New Roman,serif" font-size="14.00">class = Yes</text>
</g>
<!-- 2&#45;&gt;4 -->
<g id="edge8" class="edge"><title>2&#45;&gt;4</title>
<path fill="none" stroke="black" d="M159,-193.884C159,-185.778 159,-176.982 159,-168.472"/>
<polygon fill="black" stroke="black" points="162.5,-168.299 159,-158.299 155.5,-168.299 162.5,-168.299"/>
</g>
<!-- 5 -->
<g id="node10" class="node"><title>5</title>
<polygon fill="#e58139" fill-opacity="0.164706" stroke="black" points="91.25,-53.5 0.75,-53.5 0.75,-0.5 91.25,-0.5 91.25,-53.5"/>
<text text-anchor="middle" x="46" y="-38.3" font-family="Times New Roman,serif" font-size="14.00">samples = 11</text>
<text text-anchor="middle" x="46" y="-23.3" font-family="Times New Roman,serif" font-size="14.00">value = [6, 5]</text>
<text text-anchor="middle" x="46" y="-8.3" font-family="Times New Roman,serif" font-size="14.00">class = Yes</text>
</g>
<!-- 4&#45;&gt;5 -->
<g id="edge10" class="edge"><title>4&#45;&gt;5</title>
<path fill="none" stroke="black" d="M119.478,-89.7736C107.998,-80.1224 95.4875,-69.6045 84.097,-60.0284"/>
<polygon fill="black" stroke="black" points="86.3233,-57.3276 76.4166,-53.5715 81.8187,-62.6857 86.3233,-57.3276"/>
</g>
<!-- 6 -->
<g id="node12" class="node"><title>6</title>
<polygon fill="#e58139" stroke="black" points="208,-53.5 110,-53.5 110,-0.5 208,-0.5 208,-53.5"/>
<text text-anchor="middle" x="159" y="-38.3" font-family="Times New Roman,serif" font-size="14.00">samples = 14</text>
<text text-anchor="middle" x="159" y="-23.3" font-family="Times New Roman,serif" font-size="14.00">value = [14, 0]</text>
<text text-anchor="middle" x="159" y="-8.3" font-family="Times New Roman,serif" font-size="14.00">class = Yes</text>
</g>
<!-- 4&#45;&gt;6 -->
<g id="edge12" class="edge"><title>4&#45;&gt;6</title>
<path fill="none" stroke="black" d="M159,-89.7736C159,-81.3288 159,-72.2204 159,-63.6601"/>
<polygon fill="black" stroke="black" points="162.5,-63.5715 159,-53.5715 155.5,-63.5715 162.5,-63.5715"/>
</g>
<!-- 8 -->
<g id="node16" class="node"><title>8</title>
<polygon fill="#399de5" fill-opacity="0.992157" stroke="black" points="449,-158 317,-158 317,-90 449,-90 449,-158"/>
<text text-anchor="middle" x="383" y="-142.8" font-family="Times New Roman,serif" font-size="14.00">PTRATIO &lt;= 19.95</text>
<text text-anchor="middle" x="383" y="-127.8" font-family="Times New Roman,serif" font-size="14.00">samples = 128</text>
<text text-anchor="middle" x="383" y="-112.8" font-family="Times New Roman,serif" font-size="14.00">value = [1, 127]</text>
<text text-anchor="middle" x="383" y="-97.8" font-family="Times New Roman,serif" font-size="14.00">class = No</text>
</g>
<!-- 7&#45;&gt;8 -->
<g id="edge16" class="edge"><title>7&#45;&gt;8</title>
<path fill="none" stroke="black" d="M427.572,-193.884C421.981,-185.243 415.883,-175.819 410.042,-166.793"/>
<polygon fill="black" stroke="black" points="412.918,-164.794 404.547,-158.299 407.041,-168.596 412.918,-164.794"/>
</g>
<!-- 11 -->
<g id="node22" class="node"><title>11</title>
<polygon fill="#399de5" fill-opacity="0.666667" stroke="black" points="561,-158 467,-158 467,-90 561,-90 561,-158"/>
<text text-anchor="middle" x="514" y="-142.8" font-family="Times New Roman,serif" font-size="14.00">RAD &lt;= 14.0</text>
<text text-anchor="middle" x="514" y="-127.8" font-family="Times New Roman,serif" font-size="14.00">samples = 8</text>
<text text-anchor="middle" x="514" y="-112.8" font-family="Times New Roman,serif" font-size="14.00">value = [2, 6]</text>
<text text-anchor="middle" x="514" y="-97.8" font-family="Times New Roman,serif" font-size="14.00">class = No</text>
</g>
<!-- 7&#45;&gt;11 -->
<g id="edge22" class="edge"><title>7&#45;&gt;11</title>
<path fill="none" stroke="black" d="M470.104,-193.884C475.61,-185.243 481.615,-175.819 487.367,-166.793"/>
<polygon fill="black" stroke="black" points="490.357,-168.614 492.78,-158.299 484.454,-164.852 490.357,-168.614"/>
</g>
<!-- 9 -->
<g id="node18" class="node"><title>9</title>
<polygon fill="#399de5" stroke="black" points="330,-53.5 226,-53.5 226,-0.5 330,-0.5 330,-53.5"/>
<text text-anchor="middle" x="278" y="-38.3" font-family="Times New Roman,serif" font-size="14.00">samples = 123</text>
<text text-anchor="middle" x="278" y="-23.3" font-family="Times New Roman,serif" font-size="14.00">value = [0, 123]</text>
<text text-anchor="middle" x="278" y="-8.3" font-family="Times New Roman,serif" font-size="14.00">class = No</text>
</g>
<!-- 8&#45;&gt;9 -->
<g id="edge18" class="edge"><title>8&#45;&gt;9</title>
<path fill="none" stroke="black" d="M346.276,-89.7736C335.712,-80.2152 324.207,-69.8067 313.705,-60.3049"/>
<polygon fill="black" stroke="black" points="316.027,-57.6853 306.263,-53.5715 311.33,-62.8761 316.027,-57.6853"/>
</g>
<!-- 10 -->
<g id="node20" class="node"><title>10</title>
<polygon fill="#399de5" fill-opacity="0.749020" stroke="black" points="439.25,-53.5 348.75,-53.5 348.75,-0.5 439.25,-0.5 439.25,-53.5"/>
<text text-anchor="middle" x="394" y="-38.3" font-family="Times New Roman,serif" font-size="14.00">samples = 5</text>
<text text-anchor="middle" x="394" y="-23.3" font-family="Times New Roman,serif" font-size="14.00">value = [1, 4]</text>
<text text-anchor="middle" x="394" y="-8.3" font-family="Times New Roman,serif" font-size="14.00">class = No</text>
</g>
<!-- 8&#45;&gt;10 -->
<g id="edge20" class="edge"><title>8&#45;&gt;10</title>
<path fill="none" stroke="black" d="M386.847,-89.7736C387.825,-81.3288 388.88,-72.2204 389.871,-63.6601"/>
<polygon fill="black" stroke="black" points="393.366,-63.9077 391.039,-53.5715 386.412,-63.1025 393.366,-63.9077"/>
</g>
<!-- 12 -->
<g id="node24" class="node"><title>12</title>
<polygon fill="#e58139" fill-opacity="0.498039" stroke="black" points="548.25,-53.5 457.75,-53.5 457.75,-0.5 548.25,-0.5 548.25,-53.5"/>
<text text-anchor="middle" x="503" y="-38.3" font-family="Times New Roman,serif" font-size="14.00">samples = 3</text>
<text text-anchor="middle" x="503" y="-23.3" font-family="Times New Roman,serif" font-size="14.00">value = [2, 1]</text>
<text text-anchor="middle" x="503" y="-8.3" font-family="Times New Roman,serif" font-size="14.00">class = Yes</text>
</g>
<!-- 11&#45;&gt;12 -->
<g id="edge24" class="edge"><title>11&#45;&gt;12</title>
<path fill="none" stroke="black" d="M510.153,-89.7736C509.175,-81.3288 508.12,-72.2204 507.129,-63.6601"/>
<polygon fill="black" stroke="black" points="510.588,-63.1025 505.961,-53.5715 503.634,-63.9077 510.588,-63.1025"/>
</g>
<!-- 13 -->
<g id="node26" class="node"><title>13</title>
<polygon fill="#399de5" stroke="black" points="657.25,-53.5 566.75,-53.5 566.75,-0.5 657.25,-0.5 657.25,-53.5"/>
<text text-anchor="middle" x="612" y="-38.3" font-family="Times New Roman,serif" font-size="14.00">samples = 5</text>
<text text-anchor="middle" x="612" y="-23.3" font-family="Times New Roman,serif" font-size="14.00">value = [0, 5]</text>
<text text-anchor="middle" x="612" y="-8.3" font-family="Times New Roman,serif" font-size="14.00">class = No</text>
</g>
<!-- 11&#45;&gt;13 -->
<g id="edge26" class="edge"><title>11&#45;&gt;13</title>
<path fill="none" stroke="black" d="M548.276,-89.7736C558.04,-80.308 568.665,-70.0087 578.389,-60.5819"/>
<polygon fill="black" stroke="black" points="580.877,-63.0449 585.621,-53.5715 576.005,-58.0188 580.877,-63.0449"/>
</g>
<!-- 15 -->
<g id="node30" class="node"><title>15</title>
<polygon fill="#e58139" fill-opacity="0.266667" stroke="black" points="946,-262 842,-262 842,-194 946,-194 946,-262"/>
<text text-anchor="middle" x="894" y="-246.8" font-family="Times New Roman,serif" font-size="14.00">NOX &lt;= 0.476</text>
<text text-anchor="middle" x="894" y="-231.8" font-family="Times New Roman,serif" font-size="14.00">samples = 52</text>
<text text-anchor="middle" x="894" y="-216.8" font-family="Times New Roman,serif" font-size="14.00">value = [30, 22]</text>
<text text-anchor="middle" x="894" y="-201.8" font-family="Times New Roman,serif" font-size="14.00">class = Yes</text>
</g>
<!-- 14&#45;&gt;15 -->
<g id="edge30" class="edge"><title>14&#45;&gt;15</title>
<path fill="none" stroke="black" d="M894,-297.884C894,-289.778 894,-280.982 894,-272.472"/>
<polygon fill="black" stroke="black" points="897.5,-272.299 894,-262.299 890.5,-272.299 897.5,-272.299"/>
</g>
<!-- 22 -->
<g id="node44" class="node"><title>22</title>
<polygon fill="#e58139" fill-opacity="0.890196" stroke="black" points="1280,-262 1158,-262 1158,-194 1280,-194 1280,-262"/>
<text text-anchor="middle" x="1219" y="-246.8" font-family="Times New Roman,serif" font-size="14.00">LSTAT &lt;= 14.895</text>
<text text-anchor="middle" x="1219" y="-231.8" font-family="Times New Roman,serif" font-size="14.00">samples = 162</text>
<text text-anchor="middle" x="1219" y="-216.8" font-family="Times New Roman,serif" font-size="14.00">value = [146, 16]</text>
<text text-anchor="middle" x="1219" y="-201.8" font-family="Times New Roman,serif" font-size="14.00">class = Yes</text>
</g>
<!-- 14&#45;&gt;22 -->
<g id="edge44" class="edge"><title>14&#45;&gt;22</title>
<path fill="none" stroke="black" d="M949.5,-313.581C1004.37,-296.361 1088.54,-269.945 1148.2,-251.221"/>
<polygon fill="black" stroke="black" points="1149.43,-254.503 1157.92,-248.169 1147.33,-247.824 1149.43,-254.503"/>
</g>
<!-- 16 -->
<g id="node32" class="node"><title>16</title>
<polygon fill="#e58139" fill-opacity="0.843137" stroke="black" points="883,-158 785,-158 785,-90 883,-90 883,-158"/>
<text text-anchor="middle" x="834" y="-142.8" font-family="Times New Roman,serif" font-size="14.00">RM &lt;= 5.986</text>
<text text-anchor="middle" x="834" y="-127.8" font-family="Times New Roman,serif" font-size="14.00">samples = 22</text>
<text text-anchor="middle" x="834" y="-112.8" font-family="Times New Roman,serif" font-size="14.00">value = [19, 3]</text>
<text text-anchor="middle" x="834" y="-97.8" font-family="Times New Roman,serif" font-size="14.00">class = Yes</text>
</g>
<!-- 15&#45;&gt;16 -->
<g id="edge32" class="edge"><title>15&#45;&gt;16</title>
<path fill="none" stroke="black" d="M874.52,-193.884C869.49,-185.332 864.008,-176.013 858.748,-167.072"/>
<polygon fill="black" stroke="black" points="861.675,-165.144 853.588,-158.299 855.641,-168.693 861.675,-165.144"/>
</g>
<!-- 19 -->
<g id="node38" class="node"><title>19</title>
<polygon fill="#399de5" fill-opacity="0.419608" stroke="black" points="1008.25,-158 901.75,-158 901.75,-90 1008.25,-90 1008.25,-158"/>
<text text-anchor="middle" x="955" y="-142.8" font-family="Times New Roman,serif" font-size="14.00">CRIM &lt;= 0.383</text>
<text text-anchor="middle" x="955" y="-127.8" font-family="Times New Roman,serif" font-size="14.00">samples = 30</text>
<text text-anchor="middle" x="955" y="-112.8" font-family="Times New Roman,serif" font-size="14.00">value = [11, 19]</text>
<text text-anchor="middle" x="955" y="-97.8" font-family="Times New Roman,serif" font-size="14.00">class = No</text>
</g>
<!-- 15&#45;&gt;19 -->
<g id="edge38" class="edge"><title>15&#45;&gt;19</title>
<path fill="none" stroke="black" d="M913.805,-193.884C918.919,-185.332 924.492,-176.013 929.839,-167.072"/>
<polygon fill="black" stroke="black" points="932.957,-168.678 935.086,-158.299 926.949,-165.085 932.957,-168.678"/>
</g>
<!-- 17 -->
<g id="node34" class="node"><title>17</title>
<polygon fill="#e58139" stroke="black" points="774,-53.5 676,-53.5 676,-0.5 774,-0.5 774,-53.5"/>
<text text-anchor="middle" x="725" y="-38.3" font-family="Times New Roman,serif" font-size="14.00">samples = 14</text>
<text text-anchor="middle" x="725" y="-23.3" font-family="Times New Roman,serif" font-size="14.00">value = [14, 0]</text>
<text text-anchor="middle" x="725" y="-8.3" font-family="Times New Roman,serif" font-size="14.00">class = Yes</text>
</g>
<!-- 16&#45;&gt;17 -->
<g id="edge34" class="edge"><title>16&#45;&gt;17</title>
<path fill="none" stroke="black" d="M795.877,-89.7736C784.91,-80.2152 772.968,-69.8067 762.066,-60.3049"/>
<polygon fill="black" stroke="black" points="764.178,-57.5034 754.34,-53.5715 759.579,-62.7804 764.178,-57.5034"/>
</g>
<!-- 18 -->
<g id="node36" class="node"><title>18</title>
<polygon fill="#e58139" fill-opacity="0.400000" stroke="black" points="883.25,-53.5 792.75,-53.5 792.75,-0.5 883.25,-0.5 883.25,-53.5"/>
<text text-anchor="middle" x="838" y="-38.3" font-family="Times New Roman,serif" font-size="14.00">samples = 8</text>
<text text-anchor="middle" x="838" y="-23.3" font-family="Times New Roman,serif" font-size="14.00">value = [5, 3]</text>
<text text-anchor="middle" x="838" y="-8.3" font-family="Times New Roman,serif" font-size="14.00">class = Yes</text>
</g>
<!-- 16&#45;&gt;18 -->
<g id="edge36" class="edge"><title>16&#45;&gt;18</title>
<path fill="none" stroke="black" d="M835.399,-89.7736C835.755,-81.3288 836.138,-72.2204 836.499,-63.6601"/>
<polygon fill="black" stroke="black" points="839.999,-63.7099 836.923,-53.5715 833.006,-63.4154 839.999,-63.7099"/>
</g>
<!-- 20 -->
<g id="node40" class="node"><title>20</title>
<polygon fill="#399de5" fill-opacity="0.784314" stroke="black" points="1000,-53.5 902,-53.5 902,-0.5 1000,-0.5 1000,-53.5"/>
<text text-anchor="middle" x="951" y="-38.3" font-family="Times New Roman,serif" font-size="14.00">samples = 17</text>
<text text-anchor="middle" x="951" y="-23.3" font-family="Times New Roman,serif" font-size="14.00">value = [3, 14]</text>
<text text-anchor="middle" x="951" y="-8.3" font-family="Times New Roman,serif" font-size="14.00">class = No</text>
</g>
<!-- 19&#45;&gt;20 -->
<g id="edge40" class="edge"><title>19&#45;&gt;20</title>
<path fill="none" stroke="black" d="M953.601,-89.7736C953.245,-81.3288 952.862,-72.2204 952.501,-63.6601"/>
<polygon fill="black" stroke="black" points="955.994,-63.4154 952.077,-53.5715 949.001,-63.7099 955.994,-63.4154"/>
</g>
<!-- 21 -->
<g id="node42" class="node"><title>21</title>
<polygon fill="#e58139" fill-opacity="0.376471" stroke="black" points="1109.25,-53.5 1018.75,-53.5 1018.75,-0.5 1109.25,-0.5 1109.25,-53.5"/>
<text text-anchor="middle" x="1064" y="-38.3" font-family="Times New Roman,serif" font-size="14.00">samples = 13</text>
<text text-anchor="middle" x="1064" y="-23.3" font-family="Times New Roman,serif" font-size="14.00">value = [8, 5]</text>
<text text-anchor="middle" x="1064" y="-8.3" font-family="Times New Roman,serif" font-size="14.00">class = Yes</text>
</g>
<!-- 19&#45;&gt;21 -->
<g id="edge42" class="edge"><title>19&#45;&gt;21</title>
<path fill="none" stroke="black" d="M993.123,-89.7736C1004.09,-80.2152 1016.03,-69.8067 1026.93,-60.3049"/>
<polygon fill="black" stroke="black" points="1029.42,-62.7804 1034.66,-53.5715 1024.82,-57.5034 1029.42,-62.7804"/>
</g>
<!-- 23 -->
<g id="node46" class="node"><title>23</title>
<polygon fill="#e58139" fill-opacity="0.666667" stroke="black" points="1281.25,-158 1156.75,-158 1156.75,-90 1281.25,-90 1281.25,-158"/>
<text text-anchor="middle" x="1219" y="-142.8" font-family="Times New Roman,serif" font-size="14.00">PTRATIO &lt;= 18.0</text>
<text text-anchor="middle" x="1219" y="-127.8" font-family="Times New Roman,serif" font-size="14.00">samples = 48</text>
<text text-anchor="middle" x="1219" y="-112.8" font-family="Times New Roman,serif" font-size="14.00">value = [36, 12]</text>
<text text-anchor="middle" x="1219" y="-97.8" font-family="Times New Roman,serif" font-size="14.00">class = Yes</text>
</g>
<!-- 22&#45;&gt;23 -->
<g id="edge46" class="edge"><title>22&#45;&gt;23</title>
<path fill="none" stroke="black" d="M1219,-193.884C1219,-185.778 1219,-176.982 1219,-168.472"/>
<polygon fill="black" stroke="black" points="1222.5,-168.299 1219,-158.299 1215.5,-168.299 1222.5,-168.299"/>
</g>
<!-- 26 -->
<g id="node52" class="node"><title>26</title>
<polygon fill="#e58139" fill-opacity="0.964706" stroke="black" points="1452.25,-158 1345.75,-158 1345.75,-90 1452.25,-90 1452.25,-158"/>
<text text-anchor="middle" x="1399" y="-142.8" font-family="Times New Roman,serif" font-size="14.00">CRIM &lt;= 0.147</text>
<text text-anchor="middle" x="1399" y="-127.8" font-family="Times New Roman,serif" font-size="14.00">samples = 114</text>
<text text-anchor="middle" x="1399" y="-112.8" font-family="Times New Roman,serif" font-size="14.00">value = [110, 4]</text>
<text text-anchor="middle" x="1399" y="-97.8" font-family="Times New Roman,serif" font-size="14.00">class = Yes</text>
</g>
<!-- 22&#45;&gt;26 -->
<g id="edge52" class="edge"><title>22&#45;&gt;26</title>
<path fill="none" stroke="black" d="M1277.44,-193.884C1296.49,-183.088 1317.7,-171.069 1337,-160.131"/>
<polygon fill="black" stroke="black" points="1338.75,-163.166 1345.72,-155.19 1335.3,-157.076 1338.75,-163.166"/>
</g>
<!-- 24 -->
<g id="node48" class="node"><title>24</title>
<polygon fill="#399de5" fill-opacity="0.200000" stroke="black" points="1218.25,-53.5 1127.75,-53.5 1127.75,-0.5 1218.25,-0.5 1218.25,-53.5"/>
<text text-anchor="middle" x="1173" y="-38.3" font-family="Times New Roman,serif" font-size="14.00">samples = 9</text>
<text text-anchor="middle" x="1173" y="-23.3" font-family="Times New Roman,serif" font-size="14.00">value = [4, 5]</text>
<text text-anchor="middle" x="1173" y="-8.3" font-family="Times New Roman,serif" font-size="14.00">class = No</text>
</g>
<!-- 23&#45;&gt;24 -->
<g id="edge48" class="edge"><title>23&#45;&gt;24</title>
<path fill="none" stroke="black" d="M1202.91,-89.7736C1198.69,-81.0504 1194.12,-71.6192 1189.86,-62.8153"/>
<polygon fill="black" stroke="black" points="1192.89,-61.0466 1185.38,-53.5715 1186.59,-64.0973 1192.89,-61.0466"/>
</g>
<!-- 25 -->
<g id="node50" class="node"><title>25</title>
<polygon fill="#e58139" fill-opacity="0.780392" stroke="black" points="1335,-53.5 1237,-53.5 1237,-0.5 1335,-0.5 1335,-53.5"/>
<text text-anchor="middle" x="1286" y="-38.3" font-family="Times New Roman,serif" font-size="14.00">samples = 39</text>
<text text-anchor="middle" x="1286" y="-23.3" font-family="Times New Roman,serif" font-size="14.00">value = [32, 7]</text>
<text text-anchor="middle" x="1286" y="-8.3" font-family="Times New Roman,serif" font-size="14.00">class = Yes</text>
</g>
<!-- 23&#45;&gt;25 -->
<g id="edge50" class="edge"><title>23&#45;&gt;25</title>
<path fill="none" stroke="black" d="M1242.43,-89.7736C1248.78,-80.772 1255.66,-71.0165 1262.04,-61.9743"/>
<polygon fill="black" stroke="black" points="1265.06,-63.7608 1267.97,-53.5715 1259.34,-59.7264 1265.06,-63.7608"/>
</g>
<!-- 27 -->
<g id="node54" class="node"><title>27</title>
<polygon fill="#e58139" fill-opacity="0.333333" stroke="black" points="1444.25,-53.5 1353.75,-53.5 1353.75,-0.5 1444.25,-0.5 1444.25,-53.5"/>
<text text-anchor="middle" x="1399" y="-38.3" font-family="Times New Roman,serif" font-size="14.00">samples = 5</text>
<text text-anchor="middle" x="1399" y="-23.3" font-family="Times New Roman,serif" font-size="14.00">value = [3, 2]</text>
<text text-anchor="middle" x="1399" y="-8.3" font-family="Times New Roman,serif" font-size="14.00">class = Yes</text>
</g>
<!-- 26&#45;&gt;27 -->
<g id="edge54" class="edge"><title>26&#45;&gt;27</title>
<path fill="none" stroke="black" d="M1399,-89.7736C1399,-81.3288 1399,-72.2204 1399,-63.6601"/>
<polygon fill="black" stroke="black" points="1402.5,-63.5715 1399,-53.5715 1395.5,-63.5715 1402.5,-63.5715"/>
</g>
<!-- 28 -->
<g id="node56" class="node"><title>28</title>
<polygon fill="#e58139" fill-opacity="0.980392" stroke="black" points="1567,-53.5 1463,-53.5 1463,-0.5 1567,-0.5 1567,-53.5"/>
<text text-anchor="middle" x="1515" y="-38.3" font-family="Times New Roman,serif" font-size="14.00">samples = 109</text>
<text text-anchor="middle" x="1515" y="-23.3" font-family="Times New Roman,serif" font-size="14.00">value = [107, 2]</text>
<text text-anchor="middle" x="1515" y="-8.3" font-family="Times New Roman,serif" font-size="14.00">class = Yes</text>
</g>
<!-- 26&#45;&gt;28 -->
<g id="edge56" class="edge"><title>26&#45;&gt;28</title>
<path fill="none" stroke="black" d="M1439.57,-89.7736C1451.36,-80.1224 1464.2,-69.6045 1475.89,-60.0284"/>
<polygon fill="black" stroke="black" points="1478.26,-62.6154 1483.78,-53.5715 1473.82,-57.1997 1478.26,-62.6154"/>
</g>
</g>
</svg>
