<?xml version="1.0" encoding="UTF-8" standalone="no"?>
<!DOCTYPE svg PUBLIC "-//W3C//DTD SVG 1.1//EN"
 "http://www.w3.org/Graphics/SVG/1.1/DTD/svg11.dtd">
<!-- Generated by graphviz version 2.28.0 (20110507.0327)
 -->
<!-- Title: Tree Pages: 1 -->
<svg width="1579pt" height="478pt"
 viewBox="0.00 0.00 1579.00 478.00" xmlns="http://www.w3.org/2000/svg" xmlns:xlink="http://www.w3.org/1999/xlink">
<g id="graph1" class="graph" transform="scale(1 1) rotate(0) translate(4 474)">
<title>Tree</title>
<polygon fill="white" stroke="white" points="-4,5 -4,-474 1576,-474 1576,5 -4,5"/>
<!-- 0 -->
<g id="node1" class="node"><title>0</title>
<polygon fill="#e58139" fill-opacity="0.094118" stroke="black" points="739,-470 621,-470 621,-402 739,-402 739,-470"/>
<text text-anchor="middle" x="680" y="-454.8" font-family="Times New Roman,serif" font-size="14.00">LSTAT &lt;= 9.95</text>
<text text-anchor="middle" x="680" y="-439.8" font-family="Times New Roman,serif" font-size="14.00">samples = 379</text>
<text text-anchor="middle" x="680" y="-424.8" font-family="Times New Roman,serif" font-size="14.00">value = [199, 180]</text>
<text text-anchor="middle" x="680" y="-409.8" font-family="Times New Roman,serif" font-size="14.00">class = Yes</text>
</g>
<!-- 1 -->
<g id="node2" class="node"><title>1</title>
<polygon fill="#399de5" fill-opacity="0.839216" stroke="black" points="522.25,-366 411.75,-366 411.75,-298 522.25,-298 522.25,-366"/>
<text text-anchor="middle" x="467" y="-350.8" font-family="Times New Roman,serif" font-size="14.00">RM &lt;= 6.12</text>
<text text-anchor="middle" x="467" y="-335.8" font-family="Times New Roman,serif" font-size="14.00">samples = 165</text>
<text text-anchor="middle" x="467" y="-320.8" font-family="Times New Roman,serif" font-size="14.00">value = [23, 142]</text>
<text text-anchor="middle" x="467" y="-305.8" font-family="Times New Roman,serif" font-size="14.00">class = No</text>
</g>
<!-- 0&#45;&gt;1 -->
<g id="edge2" class="edge"><title>0&#45;&gt;1</title>
<path fill="none" stroke="black" d="M620.95,-406.723C593.177,-393.423 559.991,-377.531 531.555,-363.913"/>
<polygon fill="black" stroke="black" points="533.032,-360.741 522.502,-359.578 530.009,-367.054 533.032,-360.741"/>
<text text-anchor="middle" x="530.81" y="-379.457" font-family="Times New Roman,serif" font-size="14.00">True</text>
</g>
<!-- 14 -->
<g id="node28" class="node"><title>14</title>
<polygon fill="#e58139" fill-opacity="0.784314" stroke="black" points="953.25,-366 842.75,-366 842.75,-298 953.25,-298 953.25,-366"/>
<text text-anchor="middle" x="898" y="-350.8" font-family="Times New Roman,serif" font-size="14.00">AGE &lt;= 69.95</text>
<text text-anchor="middle" x="898" y="-335.8" font-family="Times New Roman,serif" font-size="14.00">samples = 214</text>
<text text-anchor="middle" x="898" y="-320.8" font-family="Times New Roman,serif" font-size="14.00">value = [176, 38]</text>
<text text-anchor="middle" x="898" y="-305.8" font-family="Times New Roman,serif" font-size="14.00">class = Yes</text>
</g>
<!-- 0&#45;&gt;14 -->
<g id="edge28" class="edge"><title>0&#45;&gt;14</title>
<path fill="none" stroke="black" d="M739.282,-407.263C768.418,-393.63 803.587,-377.175 833.408,-363.222"/>
<polygon fill="black" stroke="black" points="834.903,-366.386 842.478,-358.978 831.937,-360.046 834.903,-366.386"/>
<text text-anchor="middle" x="833.958" y="-378.782" font-family="Times New Roman,serif" font-size="14.00">False</text>
</g>
<!-- 2 -->
<g id="node4" class="node"><title>2</title>
<polygon fill="#e58139" fill-opacity="0.549020" stroke="black" points="321.25,-262 214.75,-262 214.75,-194 321.25,-194 321.25,-262"/>
<text text-anchor="middle" x="268" y="-246.8" font-family="Times New Roman,serif" font-size="14.00">CRIM &lt;= 1.777</text>
<text text-anchor="middle" x="268" y="-231.8" font-family="Times New Roman,serif" font-size="14.00">samples = 29</text>
<text text-anchor="middle" x="268" y="-216.8" font-family="Times New Roman,serif" font-size="14.00">value = [20, 9]</text>
<text text-anchor="middle" x="268" y="-201.8" font-family="Times New Roman,serif" font-size="14.00">class = Yes</text>
</g>
<!-- 1&#45;&gt;2 -->
<g id="edge4" class="edge"><title>1&#45;&gt;2</title>
<path fill="none" stroke="black" d="M411.567,-302.587C386.363,-289.668 356.431,-274.326 330.436,-261.003"/>
<polygon fill="black" stroke="black" points="331.916,-257.828 321.42,-256.381 328.723,-264.057 331.916,-257.828"/>
</g>
<!-- 7 -->
<g id="node14" class="node"><title>7</title>
<polygon fill="#399de5" fill-opacity="0.976471" stroke="black" points="519,-262 415,-262 415,-194 519,-194 519,-262"/>
<text text-anchor="middle" x="467" y="-246.8" font-family="Times New Roman,serif" font-size="14.00">TAX &lt;= 416.5</text>
<text text-anchor="middle" x="467" y="-231.8" font-family="Times New Roman,serif" font-size="14.00">samples = 136</text>
<text text-anchor="middle" x="467" y="-216.8" font-family="Times New Roman,serif" font-size="14.00">value = [3, 133]</text>
<text text-anchor="middle" x="467" y="-201.8" font-family="Times New Roman,serif" font-size="14.00">class = No</text>
</g>
<!-- 1&#45;&gt;7 -->
<g id="edge14" class="edge"><title>1&#45;&gt;7</title>
<path fill="none" stroke="black" d="M467,-297.884C467,-289.778 467,-280.982 467,-272.472"/>
<polygon fill="black" stroke="black" points="470.5,-272.299 467,-262.299 463.5,-272.299 470.5,-272.299"/>
</g>
<!-- 3 -->
<g id="node6" class="node"><title>3</title>
<polygon fill="#e58139" fill-opacity="0.749020" stroke="black" points="204,-158 104,-158 104,-90 204,-90 204,-158"/>
<text text-anchor="middle" x="154" y="-142.8" font-family="Times New Roman,serif" font-size="14.00">AGE &lt;= 35.75</text>
<text text-anchor="middle" x="154" y="-127.8" font-family="Times New Roman,serif" font-size="14.00">samples = 25</text>
<text text-anchor="middle" x="154" y="-112.8" font-family="Times New Roman,serif" font-size="14.00">value = [20, 5]</text>
<text text-anchor="middle" x="154" y="-97.8" font-family="Times New Roman,serif" font-size="14.00">class = Yes</text>
</g>
<!-- 2&#45;&gt;3 -->
<g id="edge6" class="edge"><title>2&#45;&gt;3</title>
<path fill="none" stroke="black" d="M230.987,-193.884C220.734,-184.709 209.491,-174.65 198.843,-165.123"/>
<polygon fill="black" stroke="black" points="201.003,-162.359 191.217,-158.299 196.336,-167.576 201.003,-162.359"/>
</g>
<!-- 6 -->
<g id="node12" class="node"><title>6</title>
<polygon fill="#399de5" stroke="black" points="313.25,-150.5 222.75,-150.5 222.75,-97.5 313.25,-97.5 313.25,-150.5"/>
<text text-anchor="middle" x="268" y="-135.3" font-family="Times New Roman,serif" font-size="14.00">samples = 4</text>
<text text-anchor="middle" x="268" y="-120.3" font-family="Times New Roman,serif" font-size="14.00">value = [0, 4]</text>
<text text-anchor="middle" x="268" y="-105.3" font-family="Times New Roman,serif" font-size="14.00">class = No</text>
</g>
<!-- 2&#45;&gt;6 -->
<g id="edge12" class="edge"><title>2&#45;&gt;6</title>
<path fill="none" stroke="black" d="M268,-193.884C268,-183.326 268,-171.597 268,-160.854"/>
<polygon fill="black" stroke="black" points="271.5,-160.52 268,-150.52 264.5,-160.52 271.5,-160.52"/>
</g>
<!-- 4 -->
<g id="node8" class="node"><title>4</title>
<polygon fill="#e58139" fill-opacity="0.164706" stroke="black" points="90.25,-53.5 -0.25,-53.5 -0.25,-0.5 90.25,-0.5 90.25,-53.5"/>
<text text-anchor="middle" x="45" y="-38.3" font-family="Times New Roman,serif" font-size="14.00">samples = 11</text>
<text text-anchor="middle" x="45" y="-23.3" font-family="Times New Roman,serif" font-size="14.00">value = [6, 5]</text>
<text text-anchor="middle" x="45" y="-8.3" font-family="Times New Roman,serif" font-size="14.00">class = Yes</text>
</g>
<!-- 3&#45;&gt;4 -->
<g id="edge8" class="edge"><title>3&#45;&gt;4</title>
<path fill="none" stroke="black" d="M115.877,-89.7736C104.91,-80.2152 92.9677,-69.8067 82.0656,-60.3049"/>
<polygon fill="black" stroke="black" points="84.1782,-57.5034 74.3399,-53.5715 79.5789,-62.7804 84.1782,-57.5034"/>
</g>
<!-- 5 -->
<g id="node10" class="node"><title>5</title>
<polygon fill="#e58139" stroke="black" points="207,-53.5 109,-53.5 109,-0.5 207,-0.5 207,-53.5"/>
<text text-anchor="middle" x="158" y="-38.3" font-family="Times New Roman,serif" font-size="14.00">samples = 14</text>
<text text-anchor="middle" x="158" y="-23.3" font-family="Times New Roman,serif" font-size="14.00">value = [14, 0]</text>
<text text-anchor="middle" x="158" y="-8.3" font-family="Times New Roman,serif" font-size="14.00">class = Yes</text>
</g>
<!-- 3&#45;&gt;5 -->
<g id="edge10" class="edge"><title>3&#45;&gt;5</title>
<path fill="none" stroke="black" d="M155.399,-89.7736C155.755,-81.3288 156.138,-72.2204 156.499,-63.6601"/>
<polygon fill="black" stroke="black" points="159.999,-63.7099 156.923,-53.5715 153.006,-63.4154 159.999,-63.7099"/>
</g>
<!-- 8 -->
<g id="node16" class="node"><title>8</title>
<polygon fill="#399de5" fill-opacity="0.992157" stroke="black" points="464,-158 332,-158 332,-90 464,-90 464,-158"/>
<text text-anchor="middle" x="398" y="-142.8" font-family="Times New Roman,serif" font-size="14.00">PTRATIO &lt;= 19.95</text>
<text text-anchor="middle" x="398" y="-127.8" font-family="Times New Roman,serif" font-size="14.00">samples = 128</text>
<text text-anchor="middle" x="398" y="-112.8" font-family="Times New Roman,serif" font-size="14.00">value = [1, 127]</text>
<text text-anchor="middle" x="398" y="-97.8" font-family="Times New Roman,serif" font-size="14.00">class = No</text>
</g>
<!-- 7&#45;&gt;8 -->
<g id="edge16" class="edge"><title>7&#45;&gt;8</title>
<path fill="none" stroke="black" d="M444.598,-193.884C438.753,-185.243 432.378,-175.819 426.272,-166.793"/>
<polygon fill="black" stroke="black" points="429.028,-164.621 420.526,-158.299 423.23,-168.543 429.028,-164.621"/>
</g>
<!-- 11 -->
<g id="node22" class="node"><title>11</title>
<polygon fill="#399de5" fill-opacity="0.666667" stroke="black" points="589.25,-158 482.75,-158 482.75,-90 589.25,-90 589.25,-158"/>
<text text-anchor="middle" x="536" y="-142.8" font-family="Times New Roman,serif" font-size="14.00">CRIM &lt;= 1.771</text>
<text text-anchor="middle" x="536" y="-127.8" font-family="Times New Roman,serif" font-size="14.00">samples = 8</text>
<text text-anchor="middle" x="536" y="-112.8" font-family="Times New Roman,serif" font-size="14.00">value = [2, 6]</text>
<text text-anchor="middle" x="536" y="-97.8" font-family="Times New Roman,serif" font-size="14.00">class = No</text>
</g>
<!-- 7&#45;&gt;11 -->
<g id="edge22" class="edge"><title>7&#45;&gt;11</title>
<path fill="none" stroke="black" d="M489.402,-193.884C495.247,-185.243 501.622,-175.819 507.728,-166.793"/>
<polygon fill="black" stroke="black" points="510.77,-168.543 513.474,-158.299 504.972,-164.621 510.77,-168.543"/>
</g>
<!-- 9 -->
<g id="node18" class="node"><title>9</title>
<polygon fill="#399de5" stroke="black" points="334,-53.5 230,-53.5 230,-0.5 334,-0.5 334,-53.5"/>
<text text-anchor="middle" x="282" y="-38.3" font-family="Times New Roman,serif" font-size="14.00">samples = 123</text>
<text text-anchor="middle" x="282" y="-23.3" font-family="Times New Roman,serif" font-size="14.00">value = [0, 123]</text>
<text text-anchor="middle" x="282" y="-8.3" font-family="Times New Roman,serif" font-size="14.00">class = No</text>
</g>
<!-- 8&#45;&gt;9 -->
<g id="edge18" class="edge"><title>8&#45;&gt;9</title>
<path fill="none" stroke="black" d="M357.429,-89.7736C345.644,-80.1224 332.801,-69.6045 321.108,-60.0284"/>
<polygon fill="black" stroke="black" points="323.178,-57.1997 313.224,-53.5715 318.743,-62.6154 323.178,-57.1997"/>
</g>
<!-- 10 -->
<g id="node20" class="node"><title>10</title>
<polygon fill="#399de5" fill-opacity="0.749020" stroke="black" points="443.25,-53.5 352.75,-53.5 352.75,-0.5 443.25,-0.5 443.25,-53.5"/>
<text text-anchor="middle" x="398" y="-38.3" font-family="Times New Roman,serif" font-size="14.00">samples = 5</text>
<text text-anchor="middle" x="398" y="-23.3" font-family="Times New Roman,serif" font-size="14.00">value = [1, 4]</text>
<text text-anchor="middle" x="398" y="-8.3" font-family="Times New Roman,serif" font-size="14.00">class = No</text>
</g>
<!-- 8&#45;&gt;10 -->
<g id="edge20" class="edge"><title>8&#45;&gt;10</title>
<path fill="none" stroke="black" d="M398,-89.7736C398,-81.3288 398,-72.2204 398,-63.6601"/>
<polygon fill="black" stroke="black" points="401.5,-63.5715 398,-53.5715 394.5,-63.5715 401.5,-63.5715"/>
</g>
<!-- 12 -->
<g id="node24" class="node"><title>12</title>
<polygon fill="#e58139" fill-opacity="0.498039" stroke="black" points="552.25,-53.5 461.75,-53.5 461.75,-0.5 552.25,-0.5 552.25,-53.5"/>
<text text-anchor="middle" x="507" y="-38.3" font-family="Times New Roman,serif" font-size="14.00">samples = 3</text>
<text text-anchor="middle" x="507" y="-23.3" font-family="Times New Roman,serif" font-size="14.00">value = [2, 1]</text>
<text text-anchor="middle" x="507" y="-8.3" font-family="Times New Roman,serif" font-size="14.00">class = Yes</text>
</g>
<!-- 11&#45;&gt;12 -->
<g id="edge24" class="edge"><title>11&#45;&gt;12</title>
<path fill="none" stroke="black" d="M525.857,-89.7736C523.251,-81.236 520.438,-72.0202 517.8,-63.3781"/>
<polygon fill="black" stroke="black" points="521.073,-62.1139 514.806,-53.5715 514.378,-64.1577 521.073,-62.1139"/>
</g>
<!-- 13 -->
<g id="node26" class="node"><title>13</title>
<polygon fill="#399de5" stroke="black" points="661.25,-53.5 570.75,-53.5 570.75,-0.5 661.25,-0.5 661.25,-53.5"/>
<text text-anchor="middle" x="616" y="-38.3" font-family="Times New Roman,serif" font-size="14.00">samples = 5</text>
<text text-anchor="middle" x="616" y="-23.3" font-family="Times New Roman,serif" font-size="14.00">value = [0, 5]</text>
<text text-anchor="middle" x="616" y="-8.3" font-family="Times New Roman,serif" font-size="14.00">class = No</text>
</g>
<!-- 11&#45;&gt;13 -->
<g id="edge26" class="edge"><title>11&#45;&gt;13</title>
<path fill="none" stroke="black" d="M563.98,-89.7736C571.717,-80.5864 580.115,-70.6138 587.86,-61.4159"/>
<polygon fill="black" stroke="black" points="590.702,-63.4751 594.466,-53.5715 585.348,-58.9662 590.702,-63.4751"/>
</g>
<!-- 15 -->
<g id="node30" class="node"><title>15</title>
<polygon fill="#e58139" fill-opacity="0.266667" stroke="black" points="950,-262 846,-262 846,-194 950,-194 950,-262"/>
<text text-anchor="middle" x="898" y="-246.8" font-family="Times New Roman,serif" font-size="14.00">NOX &lt;= 0.476</text>
<text text-anchor="middle" x="898" y="-231.8" font-family="Times New Roman,serif" font-size="14.00">samples = 52</text>
<text text-anchor="middle" x="898" y="-216.8" font-family="Times New Roman,serif" font-size="14.00">value = [30, 22]</text>
<text text-anchor="middle" x="898" y="-201.8" font-family="Times New Roman,serif" font-size="14.00">class = Yes</text>
</g>
<!-- 14&#45;&gt;15 -->
<g id="edge30" class="edge"><title>14&#45;&gt;15</title>
<path fill="none" stroke="black" d="M898,-297.884C898,-289.778 898,-280.982 898,-272.472"/>
<polygon fill="black" stroke="black" points="901.5,-272.299 898,-262.299 894.5,-272.299 901.5,-272.299"/>
</g>
<!-- 22 -->
<g id="node44" class="node"><title>22</title>
<polygon fill="#e58139" fill-opacity="0.890196" stroke="black" points="1284,-262 1162,-262 1162,-194 1284,-194 1284,-262"/>
<text text-anchor="middle" x="1223" y="-246.8" font-family="Times New Roman,serif" font-size="14.00">LSTAT &lt;= 14.895</text>
<text text-anchor="middle" x="1223" y="-231.8" font-family="Times New Roman,serif" font-size="14.00">samples = 162</text>
<text text-anchor="middle" x="1223" y="-216.8" font-family="Times New Roman,serif" font-size="14.00">value = [146, 16]</text>
<text text-anchor="middle" x="1223" y="-201.8" font-family="Times New Roman,serif" font-size="14.00">class = Yes</text>
</g>
<!-- 14&#45;&gt;22 -->
<g id="edge44" class="edge"><title>14&#45;&gt;22</title>
<path fill="none" stroke="black" d="M953.5,-313.581C1008.37,-296.361 1092.54,-269.945 1152.2,-251.221"/>
<polygon fill="black" stroke="black" points="1153.43,-254.503 1161.92,-248.169 1151.33,-247.824 1153.43,-254.503"/>
</g>
<!-- 16 -->
<g id="node32" class="node"><title>16</title>
<polygon fill="#e58139" fill-opacity="0.843137" stroke="black" points="887,-158 789,-158 789,-90 887,-90 887,-158"/>
<text text-anchor="middle" x="838" y="-142.8" font-family="Times New Roman,serif" font-size="14.00">RM &lt;= 5.986</text>
<text text-anchor="middle" x="838" y="-127.8" font-family="Times New Roman,serif" font-size="14.00">samples = 22</text>
<text text-anchor="middle" x="838" y="-112.8" font-family="Times New Roman,serif" font-size="14.00">value = [19, 3]</text>
<text text-anchor="middle" x="838" y="-97.8" font-family="Times New Roman,serif" font-size="14.00">class = Yes</text>
</g>
<!-- 15&#45;&gt;16 -->
<g id="edge32" class="edge"><title>15&#45;&gt;16</title>
<path fill="none" stroke="black" d="M878.52,-193.884C873.49,-185.332 868.008,-176.013 862.748,-167.072"/>
<polygon fill="black" stroke="black" points="865.675,-165.144 857.588,-158.299 859.641,-168.693 865.675,-165.144"/>
</g>
<!-- 19 -->
<g id="node38" class="node"><title>19</title>
<polygon fill="#399de5" fill-opacity="0.419608" stroke="black" points="1012.25,-158 905.75,-158 905.75,-90 1012.25,-90 1012.25,-158"/>
<text text-anchor="middle" x="959" y="-142.8" font-family="Times New Roman,serif" font-size="14.00">CRIM &lt;= 0.383</text>
<text text-anchor="middle" x="959" y="-127.8" font-family="Times New Roman,serif" font-size="14.00">samples = 30</text>
<text text-anchor="middle" x="959" y="-112.8" font-family="Times New Roman,serif" font-size="14.00">value = [11, 19]</text>
<text text-anchor="middle" x="959" y="-97.8" font-family="Times New Roman,serif" font-size="14.00">class = No</text>
</g>
<!-- 15&#45;&gt;19 -->
<g id="edge38" class="edge"><title>15&#45;&gt;19</title>
<path fill="none" stroke="black" d="M917.805,-193.884C922.919,-185.332 928.492,-176.013 933.839,-167.072"/>
<polygon fill="black" stroke="black" points="936.957,-168.678 939.086,-158.299 930.949,-165.085 936.957,-168.678"/>
</g>
<!-- 17 -->
<g id="node34" class="node"><title>17</title>
<polygon fill="#e58139" stroke="black" points="778,-53.5 680,-53.5 680,-0.5 778,-0.5 778,-53.5"/>
<text text-anchor="middle" x="729" y="-38.3" font-family="Times New Roman,serif" font-size="14.00">samples = 14</text>
<text text-anchor="middle" x="729" y="-23.3" font-family="Times New Roman,serif" font-size="14.00">value = [14, 0]</text>
<text text-anchor="middle" x="729" y="-8.3" font-family="Times New Roman,serif" font-size="14.00">class = Yes</text>
</g>
<!-- 16&#45;&gt;17 -->
<g id="edge34" class="edge"><title>16&#45;&gt;17</title>
<path fill="none" stroke="black" d="M799.877,-89.7736C788.91,-80.2152 776.968,-69.8067 766.066,-60.3049"/>
<polygon fill="black" stroke="black" points="768.178,-57.5034 758.34,-53.5715 763.579,-62.7804 768.178,-57.5034"/>
</g>
<!-- 18 -->
<g id="node36" class="node"><title>18</title>
<polygon fill="#e58139" fill-opacity="0.400000" stroke="black" points="887.25,-53.5 796.75,-53.5 796.75,-0.5 887.25,-0.5 887.25,-53.5"/>
<text text-anchor="middle" x="842" y="-38.3" font-family="Times New Roman,serif" font-size="14.00">samples = 8</text>
<text text-anchor="middle" x="842" y="-23.3" font-family="Times New Roman,serif" font-size="14.00">value = [5, 3]</text>
<text text-anchor="middle" x="842" y="-8.3" font-family="Times New Roman,serif" font-size="14.00">class = Yes</text>
</g>
<!-- 16&#45;&gt;18 -->
<g id="edge36" class="edge"><title>16&#45;&gt;18</title>
<path fill="none" stroke="black" d="M839.399,-89.7736C839.755,-81.3288 840.138,-72.2204 840.499,-63.6601"/>
<polygon fill="black" stroke="black" points="843.999,-63.7099 840.923,-53.5715 837.006,-63.4154 843.999,-63.7099"/>
</g>
<!-- 20 -->
<g id="node40" class="node"><title>20</title>
<polygon fill="#399de5" fill-opacity="0.784314" stroke="black" points="1004,-53.5 906,-53.5 906,-0.5 1004,-0.5 1004,-53.5"/>
<text text-anchor="middle" x="955" y="-38.3" font-family="Times New Roman,serif" font-size="14.00">samples = 17</text>
<text text-anchor="middle" x="955" y="-23.3" font-family="Times New Roman,serif" font-size="14.00">value = [3, 14]</text>
<text text-anchor="middle" x="955" y="-8.3" font-family="Times New Roman,serif" font-size="14.00">class = No</text>
</g>
<!-- 19&#45;&gt;20 -->
<g id="edge40" class="edge"><title>19&#45;&gt;20</title>
<path fill="none" stroke="black" d="M957.601,-89.7736C957.245,-81.3288 956.862,-72.2204 956.501,-63.6601"/>
<polygon fill="black" stroke="black" points="959.994,-63.4154 956.077,-53.5715 953.001,-63.7099 959.994,-63.4154"/>
</g>
<!-- 21 -->
<g id="node42" class="node"><title>21</title>
<polygon fill="#e58139" fill-opacity="0.376471" stroke="black" points="1113.25,-53.5 1022.75,-53.5 1022.75,-0.5 1113.25,-0.5 1113.25,-53.5"/>
<text text-anchor="middle" x="1068" y="-38.3" font-family="Times New Roman,serif" font-size="14.00">samples = 13</text>
<text text-anchor="middle" x="1068" y="-23.3" font-family="Times New Roman,serif" font-size="14.00">value = [8, 5]</text>
<text text-anchor="middle" x="1068" y="-8.3" font-family="Times New Roman,serif" font-size="14.00">class = Yes</text>
</g>
<!-- 19&#45;&gt;21 -->
<g id="edge42" class="edge"><title>19&#45;&gt;21</title>
<path fill="none" stroke="black" d="M997.123,-89.7736C1008.09,-80.2152 1020.03,-69.8067 1030.93,-60.3049"/>
<polygon fill="black" stroke="black" points="1033.42,-62.7804 1038.66,-53.5715 1028.82,-57.5034 1033.42,-62.7804"/>
</g>
<!-- 23 -->
<g id="node46" class="node"><title>23</title>
<polygon fill="#e58139" fill-opacity="0.666667" stroke="black" points="1285.25,-158 1160.75,-158 1160.75,-90 1285.25,-90 1285.25,-158"/>
<text text-anchor="middle" x="1223" y="-142.8" font-family="Times New Roman,serif" font-size="14.00">PTRATIO &lt;= 18.0</text>
<text text-anchor="middle" x="1223" y="-127.8" font-family="Times New Roman,serif" font-size="14.00">samples = 48</text>
<text text-anchor="middle" x="1223" y="-112.8" font-family="Times New Roman,serif" font-size="14.00">value = [36, 12]</text>
<text text-anchor="middle" x="1223" y="-97.8" font-family="Times New Roman,serif" font-size="14.00">class = Yes</text>
</g>
<!-- 22&#45;&gt;23 -->
<g id="edge46" class="edge"><title>22&#45;&gt;23</title>
<path fill="none" stroke="black" d="M1223,-193.884C1223,-185.778 1223,-176.982 1223,-168.472"/>
<polygon fill="black" stroke="black" points="1226.5,-168.299 1223,-158.299 1219.5,-168.299 1226.5,-168.299"/>
</g>
<!-- 26 -->
<g id="node52" class="node"><title>26</title>
<polygon fill="#e58139" fill-opacity="0.964706" stroke="black" points="1456.25,-158 1349.75,-158 1349.75,-90 1456.25,-90 1456.25,-158"/>
<text text-anchor="middle" x="1403" y="-142.8" font-family="Times New Roman,serif" font-size="14.00">CRIM &lt;= 0.147</text>
<text text-anchor="middle" x="1403" y="-127.8" font-family="Times New Roman,serif" font-size="14.00">samples = 114</text>
<text text-anchor="middle" x="1403" y="-112.8" font-family="Times New Roman,serif" font-size="14.00">value = [110, 4]</text>
<text text-anchor="middle" x="1403" y="-97.8" font-family="Times New Roman,serif" font-size="14.00">class = Yes</text>
</g>
<!-- 22&#45;&gt;26 -->
<g id="edge52" class="edge"><title>22&#45;&gt;26</title>
<path fill="none" stroke="black" d="M1281.44,-193.884C1300.49,-183.088 1321.7,-171.069 1341,-160.131"/>
<polygon fill="black" stroke="black" points="1342.75,-163.166 1349.72,-155.19 1339.3,-157.076 1342.75,-163.166"/>
</g>
<!-- 24 -->
<g id="node48" class="node"><title>24</title>
<polygon fill="#399de5" fill-opacity="0.200000" stroke="black" points="1222.25,-53.5 1131.75,-53.5 1131.75,-0.5 1222.25,-0.5 1222.25,-53.5"/>
<text text-anchor="middle" x="1177" y="-38.3" font-family="Times New Roman,serif" font-size="14.00">samples = 9</text>
<text text-anchor="middle" x="1177" y="-23.3" font-family="Times New Roman,serif" font-size="14.00">value = [4, 5]</text>
<text text-anchor="middle" x="1177" y="-8.3" font-family="Times New Roman,serif" font-size="14.00">class = No</text>
</g>
<!-- 23&#45;&gt;24 -->
<g id="edge48" class="edge"><title>23&#45;&gt;24</title>
<path fill="none" stroke="black" d="M1206.91,-89.7736C1202.69,-81.0504 1198.12,-71.6192 1193.86,-62.8153"/>
<polygon fill="black" stroke="black" points="1196.89,-61.0466 1189.38,-53.5715 1190.59,-64.0973 1196.89,-61.0466"/>
</g>
<!-- 25 -->
<g id="node50" class="node"><title>25</title>
<polygon fill="#e58139" fill-opacity="0.780392" stroke="black" points="1339,-53.5 1241,-53.5 1241,-0.5 1339,-0.5 1339,-53.5"/>
<text text-anchor="middle" x="1290" y="-38.3" font-family="Times New Roman,serif" font-size="14.00">samples = 39</text>
<text text-anchor="middle" x="1290" y="-23.3" font-family="Times New Roman,serif" font-size="14.00">value = [32, 7]</text>
<text text-anchor="middle" x="1290" y="-8.3" font-family="Times New Roman,serif" font-size="14.00">class = Yes</text>
</g>
<!-- 23&#45;&gt;25 -->
<g id="edge50" class="edge"><title>23&#45;&gt;25</title>
<path fill="none" stroke="black" d="M1246.43,-89.7736C1252.78,-80.772 1259.66,-71.0165 1266.04,-61.9743"/>
<polygon fill="black" stroke="black" points="1269.06,-63.7608 1271.97,-53.5715 1263.34,-59.7264 1269.06,-63.7608"/>
</g>
<!-- 27 -->
<g id="node54" class="node"><title>27</title>
<polygon fill="#e58139" fill-opacity="0.333333" stroke="black" points="1448.25,-53.5 1357.75,-53.5 1357.75,-0.5 1448.25,-0.5 1448.25,-53.5"/>
<text text-anchor="middle" x="1403" y="-38.3" font-family="Times New Roman,serif" font-size="14.00">samples = 5</text>
<text text-anchor="middle" x="1403" y="-23.3" font-family="Times New Roman,serif" font-size="14.00">value = [3, 2]</text>
<text text-anchor="middle" x="1403" y="-8.3" font-family="Times New Roman,serif" font-size="14.00">class = Yes</text>
</g>
<!-- 26&#45;&gt;27 -->
<g id="edge54" class="edge"><title>26&#45;&gt;27</title>
<path fill="none" stroke="black" d="M1403,-89.7736C1403,-81.3288 1403,-72.2204 1403,-63.6601"/>
<polygon fill="black" stroke="black" points="1406.5,-63.5715 1403,-53.5715 1399.5,-63.5715 1406.5,-63.5715"/>
</g>
<!-- 28 -->
<g id="node56" class="node"><title>28</title>
<polygon fill="#e58139" fill-opacity="0.980392" stroke="black" points="1571,-53.5 1467,-53.5 1467,-0.5 1571,-0.5 1571,-53.5"/>
<text text-anchor="middle" x="1519" y="-38.3" font-family="Times New Roman,serif" font-size="14.00">samples = 109</text>
<text text-anchor="middle" x="1519" y="-23.3" font-family="Times New Roman,serif" font-size="14.00">value = [107, 2]</text>
<text text-anchor="middle" x="1519" y="-8.3" font-family="Times New Roman,serif" font-size="14.00">class = Yes</text>
</g>
<!-- 26&#45;&gt;28 -->
<g id="edge56" class="edge"><title>26&#45;&gt;28</title>
<path fill="none" stroke="black" d="M1443.57,-89.7736C1455.36,-80.1224 1468.2,-69.6045 1479.89,-60.0284"/>
<polygon fill="black" stroke="black" points="1482.26,-62.6154 1487.78,-53.5715 1477.82,-57.1997 1482.26,-62.6154"/>
</g>
</g>
</svg>
