<?xml version="1.0" encoding="UTF-8" standalone="no"?>
<!DOCTYPE svg PUBLIC "-//W3C//DTD SVG 1.1//EN"
 "http://www.w3.org/Graphics/SVG/1.1/DTD/svg11.dtd">
<!-- Generated by graphviz version 2.28.0 (20110507.0327)
 -->
<!-- Title: Tree Pages: 1 -->
<svg width="2050pt" height="686pt"
 viewBox="0.00 0.00 2050.00 686.00" xmlns="http://www.w3.org/2000/svg" xmlns:xlink="http://www.w3.org/1999/xlink">
<g id="graph1" class="graph" transform="scale(1 1) rotate(0) translate(4 682)">
<title>Tree</title>
<polygon fill="white" stroke="white" points="-4,5 -4,-682 2047,-682 2047,5 -4,5"/>
<!-- 0 -->
<g id="node1" class="node"><title>0</title>
<polygon fill="#e58139" fill-opacity="0.094118" stroke="black" points="810,-678 692,-678 692,-610 810,-610 810,-678"/>
<text text-anchor="middle" x="751" y="-662.8" font-family="Times New Roman,serif" font-size="14.00">LSTAT &lt;= 9.95</text>
<text text-anchor="middle" x="751" y="-647.8" font-family="Times New Roman,serif" font-size="14.00">samples = 379</text>
<text text-anchor="middle" x="751" y="-632.8" font-family="Times New Roman,serif" font-size="14.00">value = [199, 180]</text>
<text text-anchor="middle" x="751" y="-617.8" font-family="Times New Roman,serif" font-size="14.00">class = Yes</text>
</g>
<!-- 1 -->
<g id="node2" class="node"><title>1</title>
<polygon fill="#399de5" fill-opacity="0.839216" stroke="black" points="576.25,-574 465.75,-574 465.75,-506 576.25,-506 576.25,-574"/>
<text text-anchor="middle" x="521" y="-558.8" font-family="Times New Roman,serif" font-size="14.00">RM &lt;= 6.12</text>
<text text-anchor="middle" x="521" y="-543.8" font-family="Times New Roman,serif" font-size="14.00">samples = 165</text>
<text text-anchor="middle" x="521" y="-528.8" font-family="Times New Roman,serif" font-size="14.00">value = [23, 142]</text>
<text text-anchor="middle" x="521" y="-513.8" font-family="Times New Roman,serif" font-size="14.00">class = No</text>
</g>
<!-- 0&#45;&gt;1 -->
<g id="edge2" class="edge"><title>0&#45;&gt;1</title>
<path fill="none" stroke="black" d="M691.769,-616.732C659.286,-602.327 618.969,-584.447 585.667,-569.678"/>
<polygon fill="black" stroke="black" points="587.033,-566.456 576.473,-565.601 584.195,-572.854 587.033,-566.456"/>
<text text-anchor="middle" x="585.466" y="-585.227" font-family="Times New Roman,serif" font-size="14.00">True</text>
</g>
<!-- 16 -->
<g id="node32" class="node"><title>16</title>
<polygon fill="#e58139" fill-opacity="0.784314" stroke="black" points="1036.25,-574 925.75,-574 925.75,-506 1036.25,-506 1036.25,-574"/>
<text text-anchor="middle" x="981" y="-558.8" font-family="Times New Roman,serif" font-size="14.00">AGE &lt;= 69.95</text>
<text text-anchor="middle" x="981" y="-543.8" font-family="Times New Roman,serif" font-size="14.00">samples = 214</text>
<text text-anchor="middle" x="981" y="-528.8" font-family="Times New Roman,serif" font-size="14.00">value = [176, 38]</text>
<text text-anchor="middle" x="981" y="-513.8" font-family="Times New Roman,serif" font-size="14.00">class = Yes</text>
</g>
<!-- 0&#45;&gt;16 -->
<g id="edge32" class="edge"><title>0&#45;&gt;16</title>
<path fill="none" stroke="black" d="M810.231,-616.732C842.714,-602.327 883.031,-584.447 916.333,-569.678"/>
<polygon fill="black" stroke="black" points="917.805,-572.854 925.527,-565.601 914.967,-566.456 917.805,-572.854"/>
<text text-anchor="middle" x="916.534" y="-585.227" font-family="Times New Roman,serif" font-size="14.00">False</text>
</g>
<!-- 2 -->
<g id="node4" class="node"><title>2</title>
<polygon fill="#e58139" fill-opacity="0.549020" stroke="black" points="375.25,-470 268.75,-470 268.75,-402 375.25,-402 375.25,-470"/>
<text text-anchor="middle" x="322" y="-454.8" font-family="Times New Roman,serif" font-size="14.00">CRIM &lt;= 1.777</text>
<text text-anchor="middle" x="322" y="-439.8" font-family="Times New Roman,serif" font-size="14.00">samples = 29</text>
<text text-anchor="middle" x="322" y="-424.8" font-family="Times New Roman,serif" font-size="14.00">value = [20, 9]</text>
<text text-anchor="middle" x="322" y="-409.8" font-family="Times New Roman,serif" font-size="14.00">class = Yes</text>
</g>
<!-- 1&#45;&gt;2 -->
<g id="edge4" class="edge"><title>1&#45;&gt;2</title>
<path fill="none" stroke="black" d="M465.567,-510.587C440.363,-497.668 410.431,-482.326 384.436,-469.003"/>
<polygon fill="black" stroke="black" points="385.916,-465.828 375.42,-464.381 382.723,-472.057 385.916,-465.828"/>
</g>
<!-- 9 -->
<g id="node18" class="node"><title>9</title>
<polygon fill="#399de5" fill-opacity="0.976471" stroke="black" points="573,-470 469,-470 469,-402 573,-402 573,-470"/>
<text text-anchor="middle" x="521" y="-454.8" font-family="Times New Roman,serif" font-size="14.00">TAX &lt;= 416.5</text>
<text text-anchor="middle" x="521" y="-439.8" font-family="Times New Roman,serif" font-size="14.00">samples = 136</text>
<text text-anchor="middle" x="521" y="-424.8" font-family="Times New Roman,serif" font-size="14.00">value = [3, 133]</text>
<text text-anchor="middle" x="521" y="-409.8" font-family="Times New Roman,serif" font-size="14.00">class = No</text>
</g>
<!-- 1&#45;&gt;9 -->
<g id="edge18" class="edge"><title>1&#45;&gt;9</title>
<path fill="none" stroke="black" d="M521,-505.884C521,-497.778 521,-488.982 521,-480.472"/>
<polygon fill="black" stroke="black" points="524.5,-480.299 521,-470.299 517.5,-480.299 524.5,-480.299"/>
</g>
<!-- 3 -->
<g id="node6" class="node"><title>3</title>
<polygon fill="#e58139" fill-opacity="0.749020" stroke="black" points="258,-366 158,-366 158,-298 258,-298 258,-366"/>
<text text-anchor="middle" x="208" y="-350.8" font-family="Times New Roman,serif" font-size="14.00">AGE &lt;= 35.75</text>
<text text-anchor="middle" x="208" y="-335.8" font-family="Times New Roman,serif" font-size="14.00">samples = 25</text>
<text text-anchor="middle" x="208" y="-320.8" font-family="Times New Roman,serif" font-size="14.00">value = [20, 5]</text>
<text text-anchor="middle" x="208" y="-305.8" font-family="Times New Roman,serif" font-size="14.00">class = Yes</text>
</g>
<!-- 2&#45;&gt;3 -->
<g id="edge6" class="edge"><title>2&#45;&gt;3</title>
<path fill="none" stroke="black" d="M284.987,-401.884C274.734,-392.709 263.491,-382.65 252.843,-373.123"/>
<polygon fill="black" stroke="black" points="255.003,-370.359 245.217,-366.299 250.336,-375.576 255.003,-370.359"/>
</g>
<!-- 8 -->
<g id="node16" class="node"><title>8</title>
<polygon fill="#399de5" stroke="black" points="367.25,-358.5 276.75,-358.5 276.75,-305.5 367.25,-305.5 367.25,-358.5"/>
<text text-anchor="middle" x="322" y="-343.3" font-family="Times New Roman,serif" font-size="14.00">samples = 4</text>
<text text-anchor="middle" x="322" y="-328.3" font-family="Times New Roman,serif" font-size="14.00">value = [0, 4]</text>
<text text-anchor="middle" x="322" y="-313.3" font-family="Times New Roman,serif" font-size="14.00">class = No</text>
</g>
<!-- 2&#45;&gt;8 -->
<g id="edge16" class="edge"><title>2&#45;&gt;8</title>
<path fill="none" stroke="black" d="M322,-401.884C322,-391.326 322,-379.597 322,-368.854"/>
<polygon fill="black" stroke="black" points="325.5,-368.52 322,-358.52 318.5,-368.52 325.5,-368.52"/>
</g>
<!-- 4 -->
<g id="node8" class="node"><title>4</title>
<polygon fill="#e58139" fill-opacity="0.164706" stroke="black" points="144.25,-262 53.75,-262 53.75,-194 144.25,-194 144.25,-262"/>
<text text-anchor="middle" x="99" y="-246.8" font-family="Times New Roman,serif" font-size="14.00">ZN &lt;= 28.5</text>
<text text-anchor="middle" x="99" y="-231.8" font-family="Times New Roman,serif" font-size="14.00">samples = 11</text>
<text text-anchor="middle" x="99" y="-216.8" font-family="Times New Roman,serif" font-size="14.00">value = [6, 5]</text>
<text text-anchor="middle" x="99" y="-201.8" font-family="Times New Roman,serif" font-size="14.00">class = Yes</text>
</g>
<!-- 3&#45;&gt;4 -->
<g id="edge8" class="edge"><title>3&#45;&gt;4</title>
<path fill="none" stroke="black" d="M172.611,-297.884C162.902,-288.798 152.266,-278.845 142.173,-269.4"/>
<polygon fill="black" stroke="black" points="144.278,-266.577 134.585,-262.299 139.495,-271.688 144.278,-266.577"/>
</g>
<!-- 7 -->
<g id="node14" class="node"><title>7</title>
<polygon fill="#e58139" stroke="black" points="261,-254.5 163,-254.5 163,-201.5 261,-201.5 261,-254.5"/>
<text text-anchor="middle" x="212" y="-239.3" font-family="Times New Roman,serif" font-size="14.00">samples = 14</text>
<text text-anchor="middle" x="212" y="-224.3" font-family="Times New Roman,serif" font-size="14.00">value = [14, 0]</text>
<text text-anchor="middle" x="212" y="-209.3" font-family="Times New Roman,serif" font-size="14.00">class = Yes</text>
</g>
<!-- 3&#45;&gt;7 -->
<g id="edge14" class="edge"><title>3&#45;&gt;7</title>
<path fill="none" stroke="black" d="M209.299,-297.884C209.717,-287.216 210.182,-275.352 210.607,-264.519"/>
<polygon fill="black" stroke="black" points="214.105,-264.649 210.999,-254.52 207.11,-264.375 214.105,-264.649"/>
</g>
<!-- 5 -->
<g id="node10" class="node"><title>5</title>
<polygon fill="#399de5" fill-opacity="0.749020" stroke="black" points="90.25,-150.5 -0.25,-150.5 -0.25,-97.5 90.25,-97.5 90.25,-150.5"/>
<text text-anchor="middle" x="45" y="-135.3" font-family="Times New Roman,serif" font-size="14.00">samples = 5</text>
<text text-anchor="middle" x="45" y="-120.3" font-family="Times New Roman,serif" font-size="14.00">value = [1, 4]</text>
<text text-anchor="middle" x="45" y="-105.3" font-family="Times New Roman,serif" font-size="14.00">class = No</text>
</g>
<!-- 4&#45;&gt;5 -->
<g id="edge10" class="edge"><title>4&#45;&gt;5</title>
<path fill="none" stroke="black" d="M81.4677,-193.884C75.6453,-182.886 69.1504,-170.617 63.2735,-159.517"/>
<polygon fill="black" stroke="black" points="66.2827,-157.72 58.5106,-150.52 60.0962,-160.995 66.2827,-157.72"/>
</g>
<!-- 6 -->
<g id="node12" class="node"><title>6</title>
<polygon fill="#e58139" fill-opacity="0.800000" stroke="black" points="199.25,-150.5 108.75,-150.5 108.75,-97.5 199.25,-97.5 199.25,-150.5"/>
<text text-anchor="middle" x="154" y="-135.3" font-family="Times New Roman,serif" font-size="14.00">samples = 6</text>
<text text-anchor="middle" x="154" y="-120.3" font-family="Times New Roman,serif" font-size="14.00">value = [5, 1]</text>
<text text-anchor="middle" x="154" y="-105.3" font-family="Times New Roman,serif" font-size="14.00">class = Yes</text>
</g>
<!-- 4&#45;&gt;6 -->
<g id="edge12" class="edge"><title>4&#45;&gt;6</title>
<path fill="none" stroke="black" d="M116.857,-193.884C122.787,-182.886 129.402,-170.617 135.388,-159.517"/>
<polygon fill="black" stroke="black" points="138.574,-160.983 140.239,-150.52 132.412,-157.661 138.574,-160.983"/>
</g>
<!-- 10 -->
<g id="node20" class="node"><title>10</title>
<polygon fill="#399de5" fill-opacity="0.992157" stroke="black" points="518,-366 386,-366 386,-298 518,-298 518,-366"/>
<text text-anchor="middle" x="452" y="-350.8" font-family="Times New Roman,serif" font-size="14.00">PTRATIO &lt;= 19.95</text>
<text text-anchor="middle" x="452" y="-335.8" font-family="Times New Roman,serif" font-size="14.00">samples = 128</text>
<text text-anchor="middle" x="452" y="-320.8" font-family="Times New Roman,serif" font-size="14.00">value = [1, 127]</text>
<text text-anchor="middle" x="452" y="-305.8" font-family="Times New Roman,serif" font-size="14.00">class = No</text>
</g>
<!-- 9&#45;&gt;10 -->
<g id="edge20" class="edge"><title>9&#45;&gt;10</title>
<path fill="none" stroke="black" d="M498.598,-401.884C492.753,-393.243 486.378,-383.819 480.272,-374.793"/>
<polygon fill="black" stroke="black" points="483.028,-372.621 474.526,-366.299 477.23,-376.543 483.028,-372.621"/>
</g>
<!-- 13 -->
<g id="node26" class="node"><title>13</title>
<polygon fill="#399de5" fill-opacity="0.666667" stroke="black" points="643.25,-366 536.75,-366 536.75,-298 643.25,-298 643.25,-366"/>
<text text-anchor="middle" x="590" y="-350.8" font-family="Times New Roman,serif" font-size="14.00">CRIM &lt;= 4.572</text>
<text text-anchor="middle" x="590" y="-335.8" font-family="Times New Roman,serif" font-size="14.00">samples = 8</text>
<text text-anchor="middle" x="590" y="-320.8" font-family="Times New Roman,serif" font-size="14.00">value = [2, 6]</text>
<text text-anchor="middle" x="590" y="-305.8" font-family="Times New Roman,serif" font-size="14.00">class = No</text>
</g>
<!-- 9&#45;&gt;13 -->
<g id="edge26" class="edge"><title>9&#45;&gt;13</title>
<path fill="none" stroke="black" d="M543.402,-401.884C549.247,-393.243 555.622,-383.819 561.728,-374.793"/>
<polygon fill="black" stroke="black" points="564.77,-376.543 567.474,-366.299 558.972,-372.621 564.77,-376.543"/>
</g>
<!-- 11 -->
<g id="node22" class="node"><title>11</title>
<polygon fill="#399de5" stroke="black" points="388,-254.5 284,-254.5 284,-201.5 388,-201.5 388,-254.5"/>
<text text-anchor="middle" x="336" y="-239.3" font-family="Times New Roman,serif" font-size="14.00">samples = 123</text>
<text text-anchor="middle" x="336" y="-224.3" font-family="Times New Roman,serif" font-size="14.00">value = [0, 123]</text>
<text text-anchor="middle" x="336" y="-209.3" font-family="Times New Roman,serif" font-size="14.00">class = No</text>
</g>
<!-- 10&#45;&gt;11 -->
<g id="edge22" class="edge"><title>10&#45;&gt;11</title>
<path fill="none" stroke="black" d="M414.338,-297.884C400.955,-286.116 385.918,-272.894 372.623,-261.203"/>
<polygon fill="black" stroke="black" points="374.844,-258.495 365.023,-254.52 370.221,-263.752 374.844,-258.495"/>
</g>
<!-- 12 -->
<g id="node24" class="node"><title>12</title>
<polygon fill="#399de5" fill-opacity="0.749020" stroke="black" points="497.25,-254.5 406.75,-254.5 406.75,-201.5 497.25,-201.5 497.25,-254.5"/>
<text text-anchor="middle" x="452" y="-239.3" font-family="Times New Roman,serif" font-size="14.00">samples = 5</text>
<text text-anchor="middle" x="452" y="-224.3" font-family="Times New Roman,serif" font-size="14.00">value = [1, 4]</text>
<text text-anchor="middle" x="452" y="-209.3" font-family="Times New Roman,serif" font-size="14.00">class = No</text>
</g>
<!-- 10&#45;&gt;12 -->
<g id="edge24" class="edge"><title>10&#45;&gt;12</title>
<path fill="none" stroke="black" d="M452,-297.884C452,-287.326 452,-275.597 452,-264.854"/>
<polygon fill="black" stroke="black" points="455.5,-264.52 452,-254.52 448.5,-264.52 455.5,-264.52"/>
</g>
<!-- 14 -->
<g id="node28" class="node"><title>14</title>
<polygon fill="none" stroke="black" points="606.25,-254.5 515.75,-254.5 515.75,-201.5 606.25,-201.5 606.25,-254.5"/>
<text text-anchor="middle" x="561" y="-239.3" font-family="Times New Roman,serif" font-size="14.00">samples = 4</text>
<text text-anchor="middle" x="561" y="-224.3" font-family="Times New Roman,serif" font-size="14.00">value = [2, 2]</text>
<text text-anchor="middle" x="561" y="-209.3" font-family="Times New Roman,serif" font-size="14.00">class = Yes</text>
</g>
<!-- 13&#45;&gt;14 -->
<g id="edge28" class="edge"><title>13&#45;&gt;14</title>
<path fill="none" stroke="black" d="M580.585,-297.884C577.52,-287.106 574.109,-275.108 571.003,-264.184"/>
<polygon fill="black" stroke="black" points="574.357,-263.182 568.256,-254.52 567.624,-265.096 574.357,-263.182"/>
</g>
<!-- 15 -->
<g id="node30" class="node"><title>15</title>
<polygon fill="#399de5" stroke="black" points="715.25,-254.5 624.75,-254.5 624.75,-201.5 715.25,-201.5 715.25,-254.5"/>
<text text-anchor="middle" x="670" y="-239.3" font-family="Times New Roman,serif" font-size="14.00">samples = 4</text>
<text text-anchor="middle" x="670" y="-224.3" font-family="Times New Roman,serif" font-size="14.00">value = [0, 4]</text>
<text text-anchor="middle" x="670" y="-209.3" font-family="Times New Roman,serif" font-size="14.00">class = No</text>
</g>
<!-- 13&#45;&gt;15 -->
<g id="edge30" class="edge"><title>13&#45;&gt;15</title>
<path fill="none" stroke="black" d="M615.974,-297.884C624.858,-286.556 634.8,-273.88 643.709,-262.521"/>
<polygon fill="black" stroke="black" points="646.567,-264.548 649.984,-254.52 641.059,-260.228 646.567,-264.548"/>
</g>
<!-- 17 -->
<g id="node34" class="node"><title>17</title>
<polygon fill="#e58139" fill-opacity="0.266667" stroke="black" points="1033,-470 929,-470 929,-402 1033,-402 1033,-470"/>
<text text-anchor="middle" x="981" y="-454.8" font-family="Times New Roman,serif" font-size="14.00">NOX &lt;= 0.476</text>
<text text-anchor="middle" x="981" y="-439.8" font-family="Times New Roman,serif" font-size="14.00">samples = 52</text>
<text text-anchor="middle" x="981" y="-424.8" font-family="Times New Roman,serif" font-size="14.00">value = [30, 22]</text>
<text text-anchor="middle" x="981" y="-409.8" font-family="Times New Roman,serif" font-size="14.00">class = Yes</text>
</g>
<!-- 16&#45;&gt;17 -->
<g id="edge34" class="edge"><title>16&#45;&gt;17</title>
<path fill="none" stroke="black" d="M981,-505.884C981,-497.778 981,-488.982 981,-480.472"/>
<polygon fill="black" stroke="black" points="984.5,-480.299 981,-470.299 977.5,-480.299 984.5,-480.299"/>
</g>
<!-- 30 -->
<g id="node60" class="node"><title>30</title>
<polygon fill="#e58139" fill-opacity="0.890196" stroke="black" points="1641,-470 1519,-470 1519,-402 1641,-402 1641,-470"/>
<text text-anchor="middle" x="1580" y="-454.8" font-family="Times New Roman,serif" font-size="14.00">LSTAT &lt;= 14.895</text>
<text text-anchor="middle" x="1580" y="-439.8" font-family="Times New Roman,serif" font-size="14.00">samples = 162</text>
<text text-anchor="middle" x="1580" y="-424.8" font-family="Times New Roman,serif" font-size="14.00">value = [146, 16]</text>
<text text-anchor="middle" x="1580" y="-409.8" font-family="Times New Roman,serif" font-size="14.00">class = Yes</text>
</g>
<!-- 16&#45;&gt;30 -->
<g id="edge60" class="edge"><title>16&#45;&gt;30</title>
<path fill="none" stroke="black" d="M1036.28,-529.587C1145.3,-511.023 1387.9,-469.711 1508.74,-449.134"/>
<polygon fill="black" stroke="black" points="1509.37,-452.577 1518.64,-447.448 1508.2,-445.677 1509.37,-452.577"/>
</g>
<!-- 18 -->
<g id="node36" class="node"><title>18</title>
<polygon fill="#e58139" fill-opacity="0.843137" stroke="black" points="946,-366 848,-366 848,-298 946,-298 946,-366"/>
<text text-anchor="middle" x="897" y="-350.8" font-family="Times New Roman,serif" font-size="14.00">RM &lt;= 5.986</text>
<text text-anchor="middle" x="897" y="-335.8" font-family="Times New Roman,serif" font-size="14.00">samples = 22</text>
<text text-anchor="middle" x="897" y="-320.8" font-family="Times New Roman,serif" font-size="14.00">value = [19, 3]</text>
<text text-anchor="middle" x="897" y="-305.8" font-family="Times New Roman,serif" font-size="14.00">class = Yes</text>
</g>
<!-- 17&#45;&gt;18 -->
<g id="edge36" class="edge"><title>17&#45;&gt;18</title>
<path fill="none" stroke="black" d="M953.728,-401.884C946.465,-393.065 938.531,-383.43 930.958,-374.235"/>
<polygon fill="black" stroke="black" points="933.482,-371.794 924.423,-366.299 928.078,-376.244 933.482,-371.794"/>
</g>
<!-- 23 -->
<g id="node46" class="node"><title>23</title>
<polygon fill="#399de5" fill-opacity="0.419608" stroke="black" points="1119.25,-366 1012.75,-366 1012.75,-298 1119.25,-298 1119.25,-366"/>
<text text-anchor="middle" x="1066" y="-350.8" font-family="Times New Roman,serif" font-size="14.00">CRIM &lt;= 0.383</text>
<text text-anchor="middle" x="1066" y="-335.8" font-family="Times New Roman,serif" font-size="14.00">samples = 30</text>
<text text-anchor="middle" x="1066" y="-320.8" font-family="Times New Roman,serif" font-size="14.00">value = [11, 19]</text>
<text text-anchor="middle" x="1066" y="-305.8" font-family="Times New Roman,serif" font-size="14.00">class = No</text>
</g>
<!-- 17&#45;&gt;23 -->
<g id="edge46" class="edge"><title>17&#45;&gt;23</title>
<path fill="none" stroke="black" d="M1008.6,-401.884C1015.95,-393.065 1023.97,-383.43 1031.64,-374.235"/>
<polygon fill="black" stroke="black" points="1034.54,-376.222 1038.25,-366.299 1029.16,-371.741 1034.54,-376.222"/>
</g>
<!-- 19 -->
<g id="node38" class="node"><title>19</title>
<polygon fill="#e58139" stroke="black" points="832,-254.5 734,-254.5 734,-201.5 832,-201.5 832,-254.5"/>
<text text-anchor="middle" x="783" y="-239.3" font-family="Times New Roman,serif" font-size="14.00">samples = 14</text>
<text text-anchor="middle" x="783" y="-224.3" font-family="Times New Roman,serif" font-size="14.00">value = [14, 0]</text>
<text text-anchor="middle" x="783" y="-209.3" font-family="Times New Roman,serif" font-size="14.00">class = Yes</text>
</g>
<!-- 18&#45;&gt;19 -->
<g id="edge38" class="edge"><title>18&#45;&gt;19</title>
<path fill="none" stroke="black" d="M859.987,-297.884C846.835,-286.116 832.058,-272.894 818.992,-261.203"/>
<polygon fill="black" stroke="black" points="821.309,-258.58 811.522,-254.52 816.641,-263.796 821.309,-258.58"/>
</g>
<!-- 20 -->
<g id="node40" class="node"><title>20</title>
<polygon fill="#e58139" fill-opacity="0.400000" stroke="black" points="944,-262 850,-262 850,-194 944,-194 944,-262"/>
<text text-anchor="middle" x="897" y="-246.8" font-family="Times New Roman,serif" font-size="14.00">B &lt;= 389.105</text>
<text text-anchor="middle" x="897" y="-231.8" font-family="Times New Roman,serif" font-size="14.00">samples = 8</text>
<text text-anchor="middle" x="897" y="-216.8" font-family="Times New Roman,serif" font-size="14.00">value = [5, 3]</text>
<text text-anchor="middle" x="897" y="-201.8" font-family="Times New Roman,serif" font-size="14.00">class = Yes</text>
</g>
<!-- 18&#45;&gt;20 -->
<g id="edge40" class="edge"><title>18&#45;&gt;20</title>
<path fill="none" stroke="black" d="M897,-297.884C897,-289.778 897,-280.982 897,-272.472"/>
<polygon fill="black" stroke="black" points="900.5,-272.299 897,-262.299 893.5,-272.299 900.5,-272.299"/>
</g>
<!-- 21 -->
<g id="node42" class="node"><title>21</title>
<polygon fill="#e58139" stroke="black" points="809.25,-150.5 718.75,-150.5 718.75,-97.5 809.25,-97.5 809.25,-150.5"/>
<text text-anchor="middle" x="764" y="-135.3" font-family="Times New Roman,serif" font-size="14.00">samples = 4</text>
<text text-anchor="middle" x="764" y="-120.3" font-family="Times New Roman,serif" font-size="14.00">value = [4, 0]</text>
<text text-anchor="middle" x="764" y="-105.3" font-family="Times New Roman,serif" font-size="14.00">class = Yes</text>
</g>
<!-- 20&#45;&gt;21 -->
<g id="edge42" class="edge"><title>20&#45;&gt;21</title>
<path fill="none" stroke="black" d="M853.819,-193.884C838.331,-182.006 820.911,-168.646 805.564,-156.876"/>
<polygon fill="black" stroke="black" points="807.341,-153.828 797.276,-150.52 803.081,-159.383 807.341,-153.828"/>
</g>
<!-- 22 -->
<g id="node44" class="node"><title>22</title>
<polygon fill="#399de5" fill-opacity="0.666667" stroke="black" points="918.25,-150.5 827.75,-150.5 827.75,-97.5 918.25,-97.5 918.25,-150.5"/>
<text text-anchor="middle" x="873" y="-135.3" font-family="Times New Roman,serif" font-size="14.00">samples = 4</text>
<text text-anchor="middle" x="873" y="-120.3" font-family="Times New Roman,serif" font-size="14.00">value = [1, 3]</text>
<text text-anchor="middle" x="873" y="-105.3" font-family="Times New Roman,serif" font-size="14.00">class = No</text>
</g>
<!-- 20&#45;&gt;22 -->
<g id="edge44" class="edge"><title>20&#45;&gt;22</title>
<path fill="none" stroke="black" d="M889.208,-193.884C886.698,-183.216 883.906,-171.352 881.357,-160.519"/>
<polygon fill="black" stroke="black" points="884.702,-159.452 879.005,-150.52 877.888,-161.056 884.702,-159.452"/>
</g>
<!-- 24 -->
<g id="node48" class="node"><title>24</title>
<polygon fill="#399de5" fill-opacity="0.784314" stroke="black" points="1116,-262 1016,-262 1016,-194 1116,-194 1116,-262"/>
<text text-anchor="middle" x="1066" y="-246.8" font-family="Times New Roman,serif" font-size="14.00">AGE &lt;= 59.35</text>
<text text-anchor="middle" x="1066" y="-231.8" font-family="Times New Roman,serif" font-size="14.00">samples = 17</text>
<text text-anchor="middle" x="1066" y="-216.8" font-family="Times New Roman,serif" font-size="14.00">value = [3, 14]</text>
<text text-anchor="middle" x="1066" y="-201.8" font-family="Times New Roman,serif" font-size="14.00">class = No</text>
</g>
<!-- 23&#45;&gt;24 -->
<g id="edge48" class="edge"><title>23&#45;&gt;24</title>
<path fill="none" stroke="black" d="M1066,-297.884C1066,-289.778 1066,-280.982 1066,-272.472"/>
<polygon fill="black" stroke="black" points="1069.5,-272.299 1066,-262.299 1062.5,-272.299 1069.5,-272.299"/>
</g>
<!-- 27 -->
<g id="node54" class="node"><title>27</title>
<polygon fill="#e58139" fill-opacity="0.376471" stroke="black" points="1258,-262 1158,-262 1158,-194 1258,-194 1258,-262"/>
<text text-anchor="middle" x="1208" y="-246.8" font-family="Times New Roman,serif" font-size="14.00">AGE &lt;= 61.25</text>
<text text-anchor="middle" x="1208" y="-231.8" font-family="Times New Roman,serif" font-size="14.00">samples = 13</text>
<text text-anchor="middle" x="1208" y="-216.8" font-family="Times New Roman,serif" font-size="14.00">value = [8, 5]</text>
<text text-anchor="middle" x="1208" y="-201.8" font-family="Times New Roman,serif" font-size="14.00">class = Yes</text>
</g>
<!-- 23&#45;&gt;27 -->
<g id="edge54" class="edge"><title>23&#45;&gt;27</title>
<path fill="none" stroke="black" d="M1112.1,-297.884C1125.25,-288.442 1139.7,-278.064 1153.3,-268.292"/>
<polygon fill="black" stroke="black" points="1155.56,-270.976 1161.64,-262.299 1151.48,-265.291 1155.56,-270.976"/>
</g>
<!-- 25 -->
<g id="node50" class="node"><title>25</title>
<polygon fill="#399de5" stroke="black" points="1035,-150.5 937,-150.5 937,-97.5 1035,-97.5 1035,-150.5"/>
<text text-anchor="middle" x="986" y="-135.3" font-family="Times New Roman,serif" font-size="14.00">samples = 11</text>
<text text-anchor="middle" x="986" y="-120.3" font-family="Times New Roman,serif" font-size="14.00">value = [0, 11]</text>
<text text-anchor="middle" x="986" y="-105.3" font-family="Times New Roman,serif" font-size="14.00">class = No</text>
</g>
<!-- 24&#45;&gt;25 -->
<g id="edge50" class="edge"><title>24&#45;&gt;25</title>
<path fill="none" stroke="black" d="M1040.03,-193.884C1031.14,-182.556 1021.2,-169.88 1012.29,-158.521"/>
<polygon fill="black" stroke="black" points="1014.94,-156.228 1006.02,-150.52 1009.43,-160.548 1014.94,-156.228"/>
</g>
<!-- 26 -->
<g id="node52" class="node"><title>26</title>
<polygon fill="none" stroke="black" points="1144.25,-150.5 1053.75,-150.5 1053.75,-97.5 1144.25,-97.5 1144.25,-150.5"/>
<text text-anchor="middle" x="1099" y="-135.3" font-family="Times New Roman,serif" font-size="14.00">samples = 6</text>
<text text-anchor="middle" x="1099" y="-120.3" font-family="Times New Roman,serif" font-size="14.00">value = [3, 3]</text>
<text text-anchor="middle" x="1099" y="-105.3" font-family="Times New Roman,serif" font-size="14.00">class = Yes</text>
</g>
<!-- 24&#45;&gt;26 -->
<g id="edge52" class="edge"><title>24&#45;&gt;26</title>
<path fill="none" stroke="black" d="M1076.71,-193.884C1080.2,-183.106 1084.08,-171.108 1087.62,-160.184"/>
<polygon fill="black" stroke="black" points="1091,-161.112 1090.74,-150.52 1084.34,-158.957 1091,-161.112"/>
</g>
<!-- 28 -->
<g id="node56" class="node"><title>28</title>
<polygon fill="#e58139" stroke="black" points="1253.25,-150.5 1162.75,-150.5 1162.75,-97.5 1253.25,-97.5 1253.25,-150.5"/>
<text text-anchor="middle" x="1208" y="-135.3" font-family="Times New Roman,serif" font-size="14.00">samples = 7</text>
<text text-anchor="middle" x="1208" y="-120.3" font-family="Times New Roman,serif" font-size="14.00">value = [7, 0]</text>
<text text-anchor="middle" x="1208" y="-105.3" font-family="Times New Roman,serif" font-size="14.00">class = Yes</text>
</g>
<!-- 27&#45;&gt;28 -->
<g id="edge56" class="edge"><title>27&#45;&gt;28</title>
<path fill="none" stroke="black" d="M1208,-193.884C1208,-183.326 1208,-171.597 1208,-160.854"/>
<polygon fill="black" stroke="black" points="1211.5,-160.52 1208,-150.52 1204.5,-160.52 1211.5,-160.52"/>
</g>
<!-- 29 -->
<g id="node58" class="node"><title>29</title>
<polygon fill="#399de5" fill-opacity="0.800000" stroke="black" points="1362.25,-150.5 1271.75,-150.5 1271.75,-97.5 1362.25,-97.5 1362.25,-150.5"/>
<text text-anchor="middle" x="1317" y="-135.3" font-family="Times New Roman,serif" font-size="14.00">samples = 6</text>
<text text-anchor="middle" x="1317" y="-120.3" font-family="Times New Roman,serif" font-size="14.00">value = [1, 5]</text>
<text text-anchor="middle" x="1317" y="-105.3" font-family="Times New Roman,serif" font-size="14.00">class = No</text>
</g>
<!-- 27&#45;&gt;29 -->
<g id="edge58" class="edge"><title>27&#45;&gt;29</title>
<path fill="none" stroke="black" d="M1243.39,-193.884C1255.85,-182.226 1269.83,-169.141 1282.24,-157.532"/>
<polygon fill="black" stroke="black" points="1284.82,-159.908 1289.73,-150.52 1280.04,-154.797 1284.82,-159.908"/>
</g>
<!-- 31 -->
<g id="node62" class="node"><title>31</title>
<polygon fill="#e58139" fill-opacity="0.666667" stroke="black" points="1642.25,-366 1517.75,-366 1517.75,-298 1642.25,-298 1642.25,-366"/>
<text text-anchor="middle" x="1580" y="-350.8" font-family="Times New Roman,serif" font-size="14.00">PTRATIO &lt;= 18.0</text>
<text text-anchor="middle" x="1580" y="-335.8" font-family="Times New Roman,serif" font-size="14.00">samples = 48</text>
<text text-anchor="middle" x="1580" y="-320.8" font-family="Times New Roman,serif" font-size="14.00">value = [36, 12]</text>
<text text-anchor="middle" x="1580" y="-305.8" font-family="Times New Roman,serif" font-size="14.00">class = Yes</text>
</g>
<!-- 30&#45;&gt;31 -->
<g id="edge62" class="edge"><title>30&#45;&gt;31</title>
<path fill="none" stroke="black" d="M1580,-401.884C1580,-393.778 1580,-384.982 1580,-376.472"/>
<polygon fill="black" stroke="black" points="1583.5,-376.299 1580,-366.299 1576.5,-376.299 1583.5,-376.299"/>
</g>
<!-- 40 -->
<g id="node80" class="node"><title>40</title>
<polygon fill="#e58139" fill-opacity="0.964706" stroke="black" points="1815.25,-366 1708.75,-366 1708.75,-298 1815.25,-298 1815.25,-366"/>
<text text-anchor="middle" x="1762" y="-350.8" font-family="Times New Roman,serif" font-size="14.00">CRIM &lt;= 0.147</text>
<text text-anchor="middle" x="1762" y="-335.8" font-family="Times New Roman,serif" font-size="14.00">samples = 114</text>
<text text-anchor="middle" x="1762" y="-320.8" font-family="Times New Roman,serif" font-size="14.00">value = [110, 4]</text>
<text text-anchor="middle" x="1762" y="-305.8" font-family="Times New Roman,serif" font-size="14.00">class = Yes</text>
</g>
<!-- 30&#45;&gt;40 -->
<g id="edge80" class="edge"><title>30&#45;&gt;40</title>
<path fill="none" stroke="black" d="M1639.09,-401.884C1658.53,-390.987 1680.2,-378.844 1699.86,-367.825"/>
<polygon fill="black" stroke="black" points="1701.73,-370.792 1708.74,-362.85 1698.3,-364.686 1701.73,-370.792"/>
</g>
<!-- 32 -->
<g id="node64" class="node"><title>32</title>
<polygon fill="#399de5" fill-opacity="0.200000" stroke="black" points="1579.25,-262 1486.75,-262 1486.75,-194 1579.25,-194 1579.25,-262"/>
<text text-anchor="middle" x="1533" y="-246.8" font-family="Times New Roman,serif" font-size="14.00">RM &lt;= 6.071</text>
<text text-anchor="middle" x="1533" y="-231.8" font-family="Times New Roman,serif" font-size="14.00">samples = 9</text>
<text text-anchor="middle" x="1533" y="-216.8" font-family="Times New Roman,serif" font-size="14.00">value = [4, 5]</text>
<text text-anchor="middle" x="1533" y="-201.8" font-family="Times New Roman,serif" font-size="14.00">class = No</text>
</g>
<!-- 31&#45;&gt;32 -->
<g id="edge64" class="edge"><title>31&#45;&gt;32</title>
<path fill="none" stroke="black" d="M1564.74,-297.884C1560.88,-289.511 1556.68,-280.401 1552.64,-271.631"/>
<polygon fill="black" stroke="black" points="1555.71,-269.917 1548.34,-262.299 1549.35,-272.846 1555.71,-269.917"/>
</g>
<!-- 35 -->
<g id="node70" class="node"><title>35</title>
<polygon fill="#e58139" fill-opacity="0.780392" stroke="black" points="1698.25,-262 1597.75,-262 1597.75,-194 1698.25,-194 1698.25,-262"/>
<text text-anchor="middle" x="1648" y="-246.8" font-family="Times New Roman,serif" font-size="14.00">NOX &lt;= 0.715</text>
<text text-anchor="middle" x="1648" y="-231.8" font-family="Times New Roman,serif" font-size="14.00">samples = 39</text>
<text text-anchor="middle" x="1648" y="-216.8" font-family="Times New Roman,serif" font-size="14.00">value = [32, 7]</text>
<text text-anchor="middle" x="1648" y="-201.8" font-family="Times New Roman,serif" font-size="14.00">class = Yes</text>
</g>
<!-- 31&#45;&gt;35 -->
<g id="edge70" class="edge"><title>31&#45;&gt;35</title>
<path fill="none" stroke="black" d="M1602.08,-297.884C1607.84,-289.243 1614.12,-279.819 1620.14,-270.793"/>
<polygon fill="black" stroke="black" points="1623.17,-272.561 1625.8,-262.299 1617.34,-268.678 1623.17,-272.561"/>
</g>
<!-- 33 -->
<g id="node66" class="node"><title>33</title>
<polygon fill="#e58139" fill-opacity="0.749020" stroke="black" points="1471.25,-150.5 1380.75,-150.5 1380.75,-97.5 1471.25,-97.5 1471.25,-150.5"/>
<text text-anchor="middle" x="1426" y="-135.3" font-family="Times New Roman,serif" font-size="14.00">samples = 5</text>
<text text-anchor="middle" x="1426" y="-120.3" font-family="Times New Roman,serif" font-size="14.00">value = [4, 1]</text>
<text text-anchor="middle" x="1426" y="-105.3" font-family="Times New Roman,serif" font-size="14.00">class = Yes</text>
</g>
<!-- 32&#45;&gt;33 -->
<g id="edge66" class="edge"><title>32&#45;&gt;33</title>
<path fill="none" stroke="black" d="M1498.26,-193.884C1486.03,-182.226 1472.3,-169.141 1460.13,-157.532"/>
<polygon fill="black" stroke="black" points="1462.42,-154.887 1452.77,-150.52 1457.59,-159.953 1462.42,-154.887"/>
</g>
<!-- 34 -->
<g id="node68" class="node"><title>34</title>
<polygon fill="#399de5" stroke="black" points="1580.25,-150.5 1489.75,-150.5 1489.75,-97.5 1580.25,-97.5 1580.25,-150.5"/>
<text text-anchor="middle" x="1535" y="-135.3" font-family="Times New Roman,serif" font-size="14.00">samples = 4</text>
<text text-anchor="middle" x="1535" y="-120.3" font-family="Times New Roman,serif" font-size="14.00">value = [0, 4]</text>
<text text-anchor="middle" x="1535" y="-105.3" font-family="Times New Roman,serif" font-size="14.00">class = No</text>
</g>
<!-- 32&#45;&gt;34 -->
<g id="edge68" class="edge"><title>32&#45;&gt;34</title>
<path fill="none" stroke="black" d="M1533.65,-193.884C1533.86,-183.216 1534.09,-171.352 1534.3,-160.519"/>
<polygon fill="black" stroke="black" points="1537.8,-160.587 1534.5,-150.52 1530.8,-160.449 1537.8,-160.587"/>
</g>
<!-- 36 -->
<g id="node72" class="node"><title>36</title>
<polygon fill="#e58139" fill-opacity="0.866667" stroke="black" points="1697,-158 1599,-158 1599,-90 1697,-90 1697,-158"/>
<text text-anchor="middle" x="1648" y="-142.8" font-family="Times New Roman,serif" font-size="14.00">DIS &lt;= 2.051</text>
<text text-anchor="middle" x="1648" y="-127.8" font-family="Times New Roman,serif" font-size="14.00">samples = 34</text>
<text text-anchor="middle" x="1648" y="-112.8" font-family="Times New Roman,serif" font-size="14.00">value = [30, 4]</text>
<text text-anchor="middle" x="1648" y="-97.8" font-family="Times New Roman,serif" font-size="14.00">class = Yes</text>
</g>
<!-- 35&#45;&gt;36 -->
<g id="edge72" class="edge"><title>35&#45;&gt;36</title>
<path fill="none" stroke="black" d="M1648,-193.884C1648,-185.778 1648,-176.982 1648,-168.472"/>
<polygon fill="black" stroke="black" points="1651.5,-168.299 1648,-158.299 1644.5,-168.299 1651.5,-168.299"/>
</g>
<!-- 39 -->
<g id="node78" class="node"><title>39</title>
<polygon fill="#399de5" fill-opacity="0.333333" stroke="black" points="1806.25,-150.5 1715.75,-150.5 1715.75,-97.5 1806.25,-97.5 1806.25,-150.5"/>
<text text-anchor="middle" x="1761" y="-135.3" font-family="Times New Roman,serif" font-size="14.00">samples = 5</text>
<text text-anchor="middle" x="1761" y="-120.3" font-family="Times New Roman,serif" font-size="14.00">value = [2, 3]</text>
<text text-anchor="middle" x="1761" y="-105.3" font-family="Times New Roman,serif" font-size="14.00">class = No</text>
</g>
<!-- 35&#45;&gt;39 -->
<g id="edge78" class="edge"><title>35&#45;&gt;39</title>
<path fill="none" stroke="black" d="M1684.69,-193.884C1697.6,-182.226 1712.1,-169.141 1724.96,-157.532"/>
<polygon fill="black" stroke="black" points="1727.65,-159.819 1732.73,-150.52 1722.96,-154.622 1727.65,-159.819"/>
</g>
<!-- 37 -->
<g id="node74" class="node"><title>37</title>
<polygon fill="#e58139" fill-opacity="0.400000" stroke="black" points="1636.25,-53.5 1545.75,-53.5 1545.75,-0.5 1636.25,-0.5 1636.25,-53.5"/>
<text text-anchor="middle" x="1591" y="-38.3" font-family="Times New Roman,serif" font-size="14.00">samples = 8</text>
<text text-anchor="middle" x="1591" y="-23.3" font-family="Times New Roman,serif" font-size="14.00">value = [5, 3]</text>
<text text-anchor="middle" x="1591" y="-8.3" font-family="Times New Roman,serif" font-size="14.00">class = Yes</text>
</g>
<!-- 36&#45;&gt;37 -->
<g id="edge74" class="edge"><title>36&#45;&gt;37</title>
<path fill="none" stroke="black" d="M1628.06,-89.7736C1622.72,-80.8648 1616.93,-71.2175 1611.55,-62.2542"/>
<polygon fill="black" stroke="black" points="1614.49,-60.3457 1606.34,-53.5715 1608.49,-63.9472 1614.49,-60.3457"/>
</g>
<!-- 38 -->
<g id="node76" class="node"><title>38</title>
<polygon fill="#e58139" fill-opacity="0.960784" stroke="black" points="1753,-53.5 1655,-53.5 1655,-0.5 1753,-0.5 1753,-53.5"/>
<text text-anchor="middle" x="1704" y="-38.3" font-family="Times New Roman,serif" font-size="14.00">samples = 26</text>
<text text-anchor="middle" x="1704" y="-23.3" font-family="Times New Roman,serif" font-size="14.00">value = [25, 1]</text>
<text text-anchor="middle" x="1704" y="-8.3" font-family="Times New Roman,serif" font-size="14.00">class = Yes</text>
</g>
<!-- 36&#45;&gt;38 -->
<g id="edge76" class="edge"><title>36&#45;&gt;38</title>
<path fill="none" stroke="black" d="M1667.59,-89.7736C1672.84,-80.8648 1678.52,-71.2175 1683.81,-62.2542"/>
<polygon fill="black" stroke="black" points="1686.86,-63.9636 1688.93,-53.5715 1680.83,-60.4088 1686.86,-63.9636"/>
</g>
<!-- 41 -->
<g id="node82" class="node"><title>41</title>
<polygon fill="#e58139" fill-opacity="0.333333" stroke="black" points="1807.25,-254.5 1716.75,-254.5 1716.75,-201.5 1807.25,-201.5 1807.25,-254.5"/>
<text text-anchor="middle" x="1762" y="-239.3" font-family="Times New Roman,serif" font-size="14.00">samples = 5</text>
<text text-anchor="middle" x="1762" y="-224.3" font-family="Times New Roman,serif" font-size="14.00">value = [3, 2]</text>
<text text-anchor="middle" x="1762" y="-209.3" font-family="Times New Roman,serif" font-size="14.00">class = Yes</text>
</g>
<!-- 40&#45;&gt;41 -->
<g id="edge82" class="edge"><title>40&#45;&gt;41</title>
<path fill="none" stroke="black" d="M1762,-297.884C1762,-287.326 1762,-275.597 1762,-264.854"/>
<polygon fill="black" stroke="black" points="1765.5,-264.52 1762,-254.52 1758.5,-264.52 1765.5,-264.52"/>
</g>
<!-- 42 -->
<g id="node84" class="node"><title>42</title>
<polygon fill="#e58139" fill-opacity="0.980392" stroke="black" points="1930,-262 1826,-262 1826,-194 1930,-194 1930,-262"/>
<text text-anchor="middle" x="1878" y="-246.8" font-family="Times New Roman,serif" font-size="14.00">NOX &lt;= 0.513</text>
<text text-anchor="middle" x="1878" y="-231.8" font-family="Times New Roman,serif" font-size="14.00">samples = 109</text>
<text text-anchor="middle" x="1878" y="-216.8" font-family="Times New Roman,serif" font-size="14.00">value = [107, 2]</text>
<text text-anchor="middle" x="1878" y="-201.8" font-family="Times New Roman,serif" font-size="14.00">class = Yes</text>
</g>
<!-- 40&#45;&gt;42 -->
<g id="edge84" class="edge"><title>40&#45;&gt;42</title>
<path fill="none" stroke="black" d="M1799.66,-297.884C1810.1,-288.709 1821.54,-278.65 1832.37,-269.123"/>
<polygon fill="black" stroke="black" points="1834.93,-271.531 1840.13,-262.299 1830.31,-266.274 1834.93,-271.531"/>
</g>
<!-- 43 -->
<g id="node86" class="node"><title>43</title>
<polygon fill="#e58139" fill-opacity="0.600000" stroke="black" points="1919.25,-150.5 1828.75,-150.5 1828.75,-97.5 1919.25,-97.5 1919.25,-150.5"/>
<text text-anchor="middle" x="1874" y="-135.3" font-family="Times New Roman,serif" font-size="14.00">samples = 7</text>
<text text-anchor="middle" x="1874" y="-120.3" font-family="Times New Roman,serif" font-size="14.00">value = [5, 2]</text>
<text text-anchor="middle" x="1874" y="-105.3" font-family="Times New Roman,serif" font-size="14.00">class = Yes</text>
</g>
<!-- 42&#45;&gt;43 -->
<g id="edge86" class="edge"><title>42&#45;&gt;43</title>
<path fill="none" stroke="black" d="M1876.7,-193.884C1876.28,-183.216 1875.82,-171.352 1875.39,-160.519"/>
<polygon fill="black" stroke="black" points="1878.89,-160.375 1875,-150.52 1871.9,-160.649 1878.89,-160.375"/>
</g>
<!-- 44 -->
<g id="node88" class="node"><title>44</title>
<polygon fill="#e58139" stroke="black" points="2042,-150.5 1938,-150.5 1938,-97.5 2042,-97.5 2042,-150.5"/>
<text text-anchor="middle" x="1990" y="-135.3" font-family="Times New Roman,serif" font-size="14.00">samples = 102</text>
<text text-anchor="middle" x="1990" y="-120.3" font-family="Times New Roman,serif" font-size="14.00">value = [102, 0]</text>
<text text-anchor="middle" x="1990" y="-105.3" font-family="Times New Roman,serif" font-size="14.00">class = Yes</text>
</g>
<!-- 42&#45;&gt;44 -->
<g id="edge88" class="edge"><title>42&#45;&gt;44</title>
<path fill="none" stroke="black" d="M1914.36,-193.884C1927.16,-182.226 1941.53,-169.141 1954.28,-157.532"/>
<polygon fill="black" stroke="black" points="1956.94,-159.841 1961.98,-150.52 1952.23,-154.666 1956.94,-159.841"/>
</g>
</g>
</svg>
