<?xml version="1.0" encoding="UTF-8" standalone="no"?>
<!DOCTYPE svg PUBLIC "-//W3C//DTD SVG 1.1//EN"
 "http://www.w3.org/Graphics/SVG/1.1/DTD/svg11.dtd">
<!-- Generated by graphviz version 2.28.0 (20110507.0327)
 -->
<!-- Title: Tree Pages: 1 -->
<svg width="2050pt" height="582pt"
 viewBox="0.00 0.00 2050.00 582.00" xmlns="http://www.w3.org/2000/svg" xmlns:xlink="http://www.w3.org/1999/xlink">
<g id="graph1" class="graph" transform="scale(1 1) rotate(0) translate(4 578)">
<title>Tree</title>
<polygon fill="white" stroke="white" points="-4,5 -4,-578 2047,-578 2047,5 -4,5"/>
<!-- 0 -->
<g id="node1" class="node"><title>0</title>
<polygon fill="#e58139" fill-opacity="0.094118" stroke="black" points="811,-574 693,-574 693,-506 811,-506 811,-574"/>
<text text-anchor="middle" x="752" y="-558.8" font-family="Times New Roman,serif" font-size="14.00">LSTAT &lt;= 9.95</text>
<text text-anchor="middle" x="752" y="-543.8" font-family="Times New Roman,serif" font-size="14.00">samples = 379</text>
<text text-anchor="middle" x="752" y="-528.8" font-family="Times New Roman,serif" font-size="14.00">value = [199, 180]</text>
<text text-anchor="middle" x="752" y="-513.8" font-family="Times New Roman,serif" font-size="14.00">class = Yes</text>
</g>
<!-- 1 -->
<g id="node2" class="node"><title>1</title>
<polygon fill="#399de5" fill-opacity="0.839216" stroke="black" points="578.25,-470 467.75,-470 467.75,-402 578.25,-402 578.25,-470"/>
<text text-anchor="middle" x="523" y="-454.8" font-family="Times New Roman,serif" font-size="14.00">RM &lt;= 6.12</text>
<text text-anchor="middle" x="523" y="-439.8" font-family="Times New Roman,serif" font-size="14.00">samples = 165</text>
<text text-anchor="middle" x="523" y="-424.8" font-family="Times New Roman,serif" font-size="14.00">value = [23, 142]</text>
<text text-anchor="middle" x="523" y="-409.8" font-family="Times New Roman,serif" font-size="14.00">class = No</text>
</g>
<!-- 0&#45;&gt;1 -->
<g id="edge2" class="edge"><title>0&#45;&gt;1</title>
<path fill="none" stroke="black" d="M692.729,-512.6C660.645,-498.309 620.953,-480.63 588.022,-465.962"/>
<polygon fill="black" stroke="black" points="589.04,-462.584 578.481,-461.712 586.192,-468.978 589.04,-462.584"/>
<text text-anchor="middle" x="587.437" y="-481.353" font-family="Times New Roman,serif" font-size="14.00">True</text>
</g>
<!-- 16 -->
<g id="node32" class="node"><title>16</title>
<polygon fill="#e58139" fill-opacity="0.784314" stroke="black" points="1036.25,-470 925.75,-470 925.75,-402 1036.25,-402 1036.25,-470"/>
<text text-anchor="middle" x="981" y="-454.8" font-family="Times New Roman,serif" font-size="14.00">AGE &lt;= 69.95</text>
<text text-anchor="middle" x="981" y="-439.8" font-family="Times New Roman,serif" font-size="14.00">samples = 214</text>
<text text-anchor="middle" x="981" y="-424.8" font-family="Times New Roman,serif" font-size="14.00">value = [176, 38]</text>
<text text-anchor="middle" x="981" y="-409.8" font-family="Times New Roman,serif" font-size="14.00">class = Yes</text>
</g>
<!-- 0&#45;&gt;16 -->
<g id="edge32" class="edge"><title>0&#45;&gt;16</title>
<path fill="none" stroke="black" d="M811.271,-512.6C843.355,-498.309 883.047,-480.63 915.978,-465.962"/>
<polygon fill="black" stroke="black" points="917.808,-468.978 925.519,-461.712 914.96,-462.584 917.808,-468.978"/>
<text text-anchor="middle" x="916.563" y="-481.353" font-family="Times New Roman,serif" font-size="14.00">False</text>
</g>
<!-- 2 -->
<g id="node4" class="node"><title>2</title>
<polygon fill="#e58139" fill-opacity="0.549020" stroke="black" points="375.25,-366 268.75,-366 268.75,-298 375.25,-298 375.25,-366"/>
<text text-anchor="middle" x="322" y="-350.8" font-family="Times New Roman,serif" font-size="14.00">CRIM &lt;= 1.777</text>
<text text-anchor="middle" x="322" y="-335.8" font-family="Times New Roman,serif" font-size="14.00">samples = 29</text>
<text text-anchor="middle" x="322" y="-320.8" font-family="Times New Roman,serif" font-size="14.00">value = [20, 9]</text>
<text text-anchor="middle" x="322" y="-305.8" font-family="Times New Roman,serif" font-size="14.00">class = Yes</text>
</g>
<!-- 1&#45;&gt;2 -->
<g id="edge4" class="edge"><title>1&#45;&gt;2</title>
<path fill="none" stroke="black" d="M467.544,-406.858C441.869,-393.829 411.25,-378.291 384.734,-364.835"/>
<polygon fill="black" stroke="black" points="386.043,-361.575 375.542,-360.17 382.875,-367.817 386.043,-361.575"/>
</g>
<!-- 9 -->
<g id="node18" class="node"><title>9</title>
<polygon fill="#399de5" fill-opacity="0.976471" stroke="black" points="575,-366 471,-366 471,-298 575,-298 575,-366"/>
<text text-anchor="middle" x="523" y="-350.8" font-family="Times New Roman,serif" font-size="14.00">TAX &lt;= 416.5</text>
<text text-anchor="middle" x="523" y="-335.8" font-family="Times New Roman,serif" font-size="14.00">samples = 136</text>
<text text-anchor="middle" x="523" y="-320.8" font-family="Times New Roman,serif" font-size="14.00">value = [3, 133]</text>
<text text-anchor="middle" x="523" y="-305.8" font-family="Times New Roman,serif" font-size="14.00">class = No</text>
</g>
<!-- 1&#45;&gt;9 -->
<g id="edge18" class="edge"><title>1&#45;&gt;9</title>
<path fill="none" stroke="black" d="M523,-401.884C523,-393.778 523,-384.982 523,-376.472"/>
<polygon fill="black" stroke="black" points="526.5,-376.299 523,-366.299 519.5,-376.299 526.5,-376.299"/>
</g>
<!-- 3 -->
<g id="node6" class="node"><title>3</title>
<polygon fill="#e58139" fill-opacity="0.749020" stroke="black" points="258,-262 158,-262 158,-194 258,-194 258,-262"/>
<text text-anchor="middle" x="208" y="-246.8" font-family="Times New Roman,serif" font-size="14.00">AGE &lt;= 35.75</text>
<text text-anchor="middle" x="208" y="-231.8" font-family="Times New Roman,serif" font-size="14.00">samples = 25</text>
<text text-anchor="middle" x="208" y="-216.8" font-family="Times New Roman,serif" font-size="14.00">value = [20, 5]</text>
<text text-anchor="middle" x="208" y="-201.8" font-family="Times New Roman,serif" font-size="14.00">class = Yes</text>
</g>
<!-- 2&#45;&gt;3 -->
<g id="edge6" class="edge"><title>2&#45;&gt;3</title>
<path fill="none" stroke="black" d="M284.987,-297.884C274.734,-288.709 263.491,-278.65 252.843,-269.123"/>
<polygon fill="black" stroke="black" points="255.003,-266.359 245.217,-262.299 250.336,-271.576 255.003,-266.359"/>
</g>
<!-- 8 -->
<g id="node16" class="node"><title>8</title>
<polygon fill="#399de5" stroke="black" points="367.25,-254.5 276.75,-254.5 276.75,-201.5 367.25,-201.5 367.25,-254.5"/>
<text text-anchor="middle" x="322" y="-239.3" font-family="Times New Roman,serif" font-size="14.00">samples = 4</text>
<text text-anchor="middle" x="322" y="-224.3" font-family="Times New Roman,serif" font-size="14.00">value = [0, 4]</text>
<text text-anchor="middle" x="322" y="-209.3" font-family="Times New Roman,serif" font-size="14.00">class = No</text>
</g>
<!-- 2&#45;&gt;8 -->
<g id="edge16" class="edge"><title>2&#45;&gt;8</title>
<path fill="none" stroke="black" d="M322,-297.884C322,-287.326 322,-275.597 322,-264.854"/>
<polygon fill="black" stroke="black" points="325.5,-264.52 322,-254.52 318.5,-264.52 325.5,-264.52"/>
</g>
<!-- 4 -->
<g id="node8" class="node"><title>4</title>
<polygon fill="#e58139" fill-opacity="0.164706" stroke="black" points="144.25,-158 53.75,-158 53.75,-90 144.25,-90 144.25,-158"/>
<text text-anchor="middle" x="99" y="-142.8" font-family="Times New Roman,serif" font-size="14.00">ZN &lt;= 28.5</text>
<text text-anchor="middle" x="99" y="-127.8" font-family="Times New Roman,serif" font-size="14.00">samples = 11</text>
<text text-anchor="middle" x="99" y="-112.8" font-family="Times New Roman,serif" font-size="14.00">value = [6, 5]</text>
<text text-anchor="middle" x="99" y="-97.8" font-family="Times New Roman,serif" font-size="14.00">class = Yes</text>
</g>
<!-- 3&#45;&gt;4 -->
<g id="edge8" class="edge"><title>3&#45;&gt;4</title>
<path fill="none" stroke="black" d="M172.611,-193.884C162.902,-184.798 152.266,-174.845 142.173,-165.4"/>
<polygon fill="black" stroke="black" points="144.278,-162.577 134.585,-158.299 139.495,-167.688 144.278,-162.577"/>
</g>
<!-- 7 -->
<g id="node14" class="node"><title>7</title>
<polygon fill="#e58139" stroke="black" points="261,-150.5 163,-150.5 163,-97.5 261,-97.5 261,-150.5"/>
<text text-anchor="middle" x="212" y="-135.3" font-family="Times New Roman,serif" font-size="14.00">samples = 14</text>
<text text-anchor="middle" x="212" y="-120.3" font-family="Times New Roman,serif" font-size="14.00">value = [14, 0]</text>
<text text-anchor="middle" x="212" y="-105.3" font-family="Times New Roman,serif" font-size="14.00">class = Yes</text>
</g>
<!-- 3&#45;&gt;7 -->
<g id="edge14" class="edge"><title>3&#45;&gt;7</title>
<path fill="none" stroke="black" d="M209.299,-193.884C209.717,-183.216 210.182,-171.352 210.607,-160.519"/>
<polygon fill="black" stroke="black" points="214.105,-160.649 210.999,-150.52 207.11,-160.375 214.105,-160.649"/>
</g>
<!-- 5 -->
<g id="node10" class="node"><title>5</title>
<polygon fill="#399de5" fill-opacity="0.749020" stroke="black" points="90.25,-53.5 -0.25,-53.5 -0.25,-0.5 90.25,-0.5 90.25,-53.5"/>
<text text-anchor="middle" x="45" y="-38.3" font-family="Times New Roman,serif" font-size="14.00">samples = 5</text>
<text text-anchor="middle" x="45" y="-23.3" font-family="Times New Roman,serif" font-size="14.00">value = [1, 4]</text>
<text text-anchor="middle" x="45" y="-8.3" font-family="Times New Roman,serif" font-size="14.00">class = No</text>
</g>
<!-- 4&#45;&gt;5 -->
<g id="edge10" class="edge"><title>4&#45;&gt;5</title>
<path fill="none" stroke="black" d="M80.1134,-89.7736C75.1022,-80.9576 69.6799,-71.4184 64.6301,-62.5345"/>
<polygon fill="black" stroke="black" points="67.5199,-60.5356 59.5354,-53.5715 61.4343,-63.9948 67.5199,-60.5356"/>
</g>
<!-- 6 -->
<g id="node12" class="node"><title>6</title>
<polygon fill="#e58139" fill-opacity="0.800000" stroke="black" points="199.25,-53.5 108.75,-53.5 108.75,-0.5 199.25,-0.5 199.25,-53.5"/>
<text text-anchor="middle" x="154" y="-38.3" font-family="Times New Roman,serif" font-size="14.00">samples = 6</text>
<text text-anchor="middle" x="154" y="-23.3" font-family="Times New Roman,serif" font-size="14.00">value = [5, 1]</text>
<text text-anchor="middle" x="154" y="-8.3" font-family="Times New Roman,serif" font-size="14.00">class = Yes</text>
</g>
<!-- 4&#45;&gt;6 -->
<g id="edge12" class="edge"><title>4&#45;&gt;6</title>
<path fill="none" stroke="black" d="M118.236,-89.7736C123.394,-80.8648 128.979,-71.2175 134.169,-62.2542"/>
<polygon fill="black" stroke="black" points="137.214,-63.9794 139.195,-53.5715 131.156,-60.4721 137.214,-63.9794"/>
</g>
<!-- 10 -->
<g id="node20" class="node"><title>10</title>
<polygon fill="#399de5" fill-opacity="0.992157" stroke="black" points="518,-262 386,-262 386,-194 518,-194 518,-262"/>
<text text-anchor="middle" x="452" y="-246.8" font-family="Times New Roman,serif" font-size="14.00">PTRATIO &lt;= 19.95</text>
<text text-anchor="middle" x="452" y="-231.8" font-family="Times New Roman,serif" font-size="14.00">samples = 128</text>
<text text-anchor="middle" x="452" y="-216.8" font-family="Times New Roman,serif" font-size="14.00">value = [1, 127]</text>
<text text-anchor="middle" x="452" y="-201.8" font-family="Times New Roman,serif" font-size="14.00">class = No</text>
</g>
<!-- 9&#45;&gt;10 -->
<g id="edge20" class="edge"><title>9&#45;&gt;10</title>
<path fill="none" stroke="black" d="M499.948,-297.884C493.872,-289.154 487.239,-279.625 480.897,-270.514"/>
<polygon fill="black" stroke="black" points="483.765,-268.507 475.179,-262.299 478.019,-272.506 483.765,-268.507"/>
</g>
<!-- 13 -->
<g id="node26" class="node"><title>13</title>
<polygon fill="#399de5" fill-opacity="0.666667" stroke="black" points="649.25,-262 536.75,-262 536.75,-194 649.25,-194 649.25,-262"/>
<text text-anchor="middle" x="593" y="-246.8" font-family="Times New Roman,serif" font-size="14.00">INDUS &lt;= 10.67</text>
<text text-anchor="middle" x="593" y="-231.8" font-family="Times New Roman,serif" font-size="14.00">samples = 8</text>
<text text-anchor="middle" x="593" y="-216.8" font-family="Times New Roman,serif" font-size="14.00">value = [2, 6]</text>
<text text-anchor="middle" x="593" y="-201.8" font-family="Times New Roman,serif" font-size="14.00">class = No</text>
</g>
<!-- 9&#45;&gt;13 -->
<g id="edge26" class="edge"><title>9&#45;&gt;13</title>
<path fill="none" stroke="black" d="M545.727,-297.884C551.657,-289.243 558.124,-279.819 564.319,-270.793"/>
<polygon fill="black" stroke="black" points="567.375,-272.525 570.147,-262.299 561.603,-268.564 567.375,-272.525"/>
</g>
<!-- 11 -->
<g id="node22" class="node"><title>11</title>
<polygon fill="#399de5" stroke="black" points="388,-150.5 284,-150.5 284,-97.5 388,-97.5 388,-150.5"/>
<text text-anchor="middle" x="336" y="-135.3" font-family="Times New Roman,serif" font-size="14.00">samples = 123</text>
<text text-anchor="middle" x="336" y="-120.3" font-family="Times New Roman,serif" font-size="14.00">value = [0, 123]</text>
<text text-anchor="middle" x="336" y="-105.3" font-family="Times New Roman,serif" font-size="14.00">class = No</text>
</g>
<!-- 10&#45;&gt;11 -->
<g id="edge22" class="edge"><title>10&#45;&gt;11</title>
<path fill="none" stroke="black" d="M414.338,-193.884C400.955,-182.116 385.918,-168.894 372.623,-157.203"/>
<polygon fill="black" stroke="black" points="374.844,-154.495 365.023,-150.52 370.221,-159.752 374.844,-154.495"/>
</g>
<!-- 12 -->
<g id="node24" class="node"><title>12</title>
<polygon fill="#399de5" fill-opacity="0.749020" stroke="black" points="497.25,-150.5 406.75,-150.5 406.75,-97.5 497.25,-97.5 497.25,-150.5"/>
<text text-anchor="middle" x="452" y="-135.3" font-family="Times New Roman,serif" font-size="14.00">samples = 5</text>
<text text-anchor="middle" x="452" y="-120.3" font-family="Times New Roman,serif" font-size="14.00">value = [1, 4]</text>
<text text-anchor="middle" x="452" y="-105.3" font-family="Times New Roman,serif" font-size="14.00">class = No</text>
</g>
<!-- 10&#45;&gt;12 -->
<g id="edge24" class="edge"><title>10&#45;&gt;12</title>
<path fill="none" stroke="black" d="M452,-193.884C452,-183.326 452,-171.597 452,-160.854"/>
<polygon fill="black" stroke="black" points="455.5,-160.52 452,-150.52 448.5,-160.52 455.5,-160.52"/>
</g>
<!-- 14 -->
<g id="node28" class="node"><title>14</title>
<polygon fill="#e58139" fill-opacity="0.498039" stroke="black" points="606.25,-150.5 515.75,-150.5 515.75,-97.5 606.25,-97.5 606.25,-150.5"/>
<text text-anchor="middle" x="561" y="-135.3" font-family="Times New Roman,serif" font-size="14.00">samples = 3</text>
<text text-anchor="middle" x="561" y="-120.3" font-family="Times New Roman,serif" font-size="14.00">value = [2, 1]</text>
<text text-anchor="middle" x="561" y="-105.3" font-family="Times New Roman,serif" font-size="14.00">class = Yes</text>
</g>
<!-- 13&#45;&gt;14 -->
<g id="edge28" class="edge"><title>13&#45;&gt;14</title>
<path fill="none" stroke="black" d="M582.611,-193.884C579.229,-183.106 575.465,-171.108 572.038,-160.184"/>
<polygon fill="black" stroke="black" points="575.339,-159.014 569.006,-150.52 568.66,-161.109 575.339,-159.014"/>
</g>
<!-- 15 -->
<g id="node30" class="node"><title>15</title>
<polygon fill="#399de5" stroke="black" points="715.25,-150.5 624.75,-150.5 624.75,-97.5 715.25,-97.5 715.25,-150.5"/>
<text text-anchor="middle" x="670" y="-135.3" font-family="Times New Roman,serif" font-size="14.00">samples = 5</text>
<text text-anchor="middle" x="670" y="-120.3" font-family="Times New Roman,serif" font-size="14.00">value = [0, 5]</text>
<text text-anchor="middle" x="670" y="-105.3" font-family="Times New Roman,serif" font-size="14.00">class = No</text>
</g>
<!-- 13&#45;&gt;15 -->
<g id="edge30" class="edge"><title>13&#45;&gt;15</title>
<path fill="none" stroke="black" d="M618,-193.884C626.551,-182.556 636.12,-169.88 644.695,-158.521"/>
<polygon fill="black" stroke="black" points="647.503,-160.61 650.735,-150.52 641.916,-156.392 647.503,-160.61"/>
</g>
<!-- 17 -->
<g id="node34" class="node"><title>17</title>
<polygon fill="#e58139" fill-opacity="0.266667" stroke="black" points="1033,-366 929,-366 929,-298 1033,-298 1033,-366"/>
<text text-anchor="middle" x="981" y="-350.8" font-family="Times New Roman,serif" font-size="14.00">NOX &lt;= 0.476</text>
<text text-anchor="middle" x="981" y="-335.8" font-family="Times New Roman,serif" font-size="14.00">samples = 52</text>
<text text-anchor="middle" x="981" y="-320.8" font-family="Times New Roman,serif" font-size="14.00">value = [30, 22]</text>
<text text-anchor="middle" x="981" y="-305.8" font-family="Times New Roman,serif" font-size="14.00">class = Yes</text>
</g>
<!-- 16&#45;&gt;17 -->
<g id="edge34" class="edge"><title>16&#45;&gt;17</title>
<path fill="none" stroke="black" d="M981,-401.884C981,-393.778 981,-384.982 981,-376.472"/>
<polygon fill="black" stroke="black" points="984.5,-376.299 981,-366.299 977.5,-376.299 984.5,-376.299"/>
</g>
<!-- 30 -->
<g id="node60" class="node"><title>30</title>
<polygon fill="#e58139" fill-opacity="0.890196" stroke="black" points="1641,-366 1519,-366 1519,-298 1641,-298 1641,-366"/>
<text text-anchor="middle" x="1580" y="-350.8" font-family="Times New Roman,serif" font-size="14.00">LSTAT &lt;= 14.895</text>
<text text-anchor="middle" x="1580" y="-335.8" font-family="Times New Roman,serif" font-size="14.00">samples = 162</text>
<text text-anchor="middle" x="1580" y="-320.8" font-family="Times New Roman,serif" font-size="14.00">value = [146, 16]</text>
<text text-anchor="middle" x="1580" y="-305.8" font-family="Times New Roman,serif" font-size="14.00">class = Yes</text>
</g>
<!-- 16&#45;&gt;30 -->
<g id="edge60" class="edge"><title>16&#45;&gt;30</title>
<path fill="none" stroke="black" d="M1036.28,-425.587C1145.3,-407.023 1387.9,-365.711 1508.74,-345.134"/>
<polygon fill="black" stroke="black" points="1509.37,-348.577 1518.64,-343.448 1508.2,-341.677 1509.37,-348.577"/>
</g>
<!-- 18 -->
<g id="node36" class="node"><title>18</title>
<polygon fill="#e58139" fill-opacity="0.843137" stroke="black" points="946,-262 848,-262 848,-194 946,-194 946,-262"/>
<text text-anchor="middle" x="897" y="-246.8" font-family="Times New Roman,serif" font-size="14.00">RM &lt;= 5.986</text>
<text text-anchor="middle" x="897" y="-231.8" font-family="Times New Roman,serif" font-size="14.00">samples = 22</text>
<text text-anchor="middle" x="897" y="-216.8" font-family="Times New Roman,serif" font-size="14.00">value = [19, 3]</text>
<text text-anchor="middle" x="897" y="-201.8" font-family="Times New Roman,serif" font-size="14.00">class = Yes</text>
</g>
<!-- 17&#45;&gt;18 -->
<g id="edge36" class="edge"><title>17&#45;&gt;18</title>
<path fill="none" stroke="black" d="M953.728,-297.884C946.465,-289.065 938.531,-279.43 930.958,-270.235"/>
<polygon fill="black" stroke="black" points="933.482,-267.794 924.423,-262.299 928.078,-272.244 933.482,-267.794"/>
</g>
<!-- 23 -->
<g id="node46" class="node"><title>23</title>
<polygon fill="#399de5" fill-opacity="0.419608" stroke="black" points="1119.25,-262 1012.75,-262 1012.75,-194 1119.25,-194 1119.25,-262"/>
<text text-anchor="middle" x="1066" y="-246.8" font-family="Times New Roman,serif" font-size="14.00">CRIM &lt;= 0.383</text>
<text text-anchor="middle" x="1066" y="-231.8" font-family="Times New Roman,serif" font-size="14.00">samples = 30</text>
<text text-anchor="middle" x="1066" y="-216.8" font-family="Times New Roman,serif" font-size="14.00">value = [11, 19]</text>
<text text-anchor="middle" x="1066" y="-201.8" font-family="Times New Roman,serif" font-size="14.00">class = No</text>
</g>
<!-- 17&#45;&gt;23 -->
<g id="edge46" class="edge"><title>17&#45;&gt;23</title>
<path fill="none" stroke="black" d="M1008.6,-297.884C1015.95,-289.065 1023.97,-279.43 1031.64,-270.235"/>
<polygon fill="black" stroke="black" points="1034.54,-272.222 1038.25,-262.299 1029.16,-267.741 1034.54,-272.222"/>
</g>
<!-- 19 -->
<g id="node38" class="node"><title>19</title>
<polygon fill="#e58139" stroke="black" points="832,-150.5 734,-150.5 734,-97.5 832,-97.5 832,-150.5"/>
<text text-anchor="middle" x="783" y="-135.3" font-family="Times New Roman,serif" font-size="14.00">samples = 14</text>
<text text-anchor="middle" x="783" y="-120.3" font-family="Times New Roman,serif" font-size="14.00">value = [14, 0]</text>
<text text-anchor="middle" x="783" y="-105.3" font-family="Times New Roman,serif" font-size="14.00">class = Yes</text>
</g>
<!-- 18&#45;&gt;19 -->
<g id="edge38" class="edge"><title>18&#45;&gt;19</title>
<path fill="none" stroke="black" d="M859.987,-193.884C846.835,-182.116 832.058,-168.894 818.992,-157.203"/>
<polygon fill="black" stroke="black" points="821.309,-154.58 811.522,-150.52 816.641,-159.796 821.309,-154.58"/>
</g>
<!-- 20 -->
<g id="node40" class="node"><title>20</title>
<polygon fill="#e58139" fill-opacity="0.400000" stroke="black" points="944,-158 850,-158 850,-90 944,-90 944,-158"/>
<text text-anchor="middle" x="897" y="-142.8" font-family="Times New Roman,serif" font-size="14.00">B &lt;= 389.105</text>
<text text-anchor="middle" x="897" y="-127.8" font-family="Times New Roman,serif" font-size="14.00">samples = 8</text>
<text text-anchor="middle" x="897" y="-112.8" font-family="Times New Roman,serif" font-size="14.00">value = [5, 3]</text>
<text text-anchor="middle" x="897" y="-97.8" font-family="Times New Roman,serif" font-size="14.00">class = Yes</text>
</g>
<!-- 18&#45;&gt;20 -->
<g id="edge40" class="edge"><title>18&#45;&gt;20</title>
<path fill="none" stroke="black" d="M897,-193.884C897,-185.778 897,-176.982 897,-168.472"/>
<polygon fill="black" stroke="black" points="900.5,-168.299 897,-158.299 893.5,-168.299 900.5,-168.299"/>
</g>
<!-- 21 -->
<g id="node42" class="node"><title>21</title>
<polygon fill="#e58139" stroke="black" points="809.25,-53.5 718.75,-53.5 718.75,-0.5 809.25,-0.5 809.25,-53.5"/>
<text text-anchor="middle" x="764" y="-38.3" font-family="Times New Roman,serif" font-size="14.00">samples = 4</text>
<text text-anchor="middle" x="764" y="-23.3" font-family="Times New Roman,serif" font-size="14.00">value = [4, 0]</text>
<text text-anchor="middle" x="764" y="-8.3" font-family="Times New Roman,serif" font-size="14.00">class = Yes</text>
</g>
<!-- 20&#45;&gt;21 -->
<g id="edge42" class="edge"><title>20&#45;&gt;21</title>
<path fill="none" stroke="black" d="M850.483,-89.7736C836.712,-79.9368 821.68,-69.1997 808.068,-59.477"/>
<polygon fill="black" stroke="black" points="809.972,-56.5359 799.8,-53.5715 805.903,-62.232 809.972,-56.5359"/>
</g>
<!-- 22 -->
<g id="node44" class="node"><title>22</title>
<polygon fill="#399de5" fill-opacity="0.666667" stroke="black" points="918.25,-53.5 827.75,-53.5 827.75,-0.5 918.25,-0.5 918.25,-53.5"/>
<text text-anchor="middle" x="873" y="-38.3" font-family="Times New Roman,serif" font-size="14.00">samples = 4</text>
<text text-anchor="middle" x="873" y="-23.3" font-family="Times New Roman,serif" font-size="14.00">value = [1, 3]</text>
<text text-anchor="middle" x="873" y="-8.3" font-family="Times New Roman,serif" font-size="14.00">class = No</text>
</g>
<!-- 20&#45;&gt;22 -->
<g id="edge44" class="edge"><title>20&#45;&gt;22</title>
<path fill="none" stroke="black" d="M888.606,-89.7736C886.449,-81.236 884.121,-72.0202 881.938,-63.3781"/>
<polygon fill="black" stroke="black" points="885.303,-62.4096 879.46,-53.5715 878.516,-64.1242 885.303,-62.4096"/>
</g>
<!-- 24 -->
<g id="node48" class="node"><title>24</title>
<polygon fill="#399de5" fill-opacity="0.784314" stroke="black" points="1116,-158 1016,-158 1016,-90 1116,-90 1116,-158"/>
<text text-anchor="middle" x="1066" y="-142.8" font-family="Times New Roman,serif" font-size="14.00">AGE &lt;= 59.35</text>
<text text-anchor="middle" x="1066" y="-127.8" font-family="Times New Roman,serif" font-size="14.00">samples = 17</text>
<text text-anchor="middle" x="1066" y="-112.8" font-family="Times New Roman,serif" font-size="14.00">value = [3, 14]</text>
<text text-anchor="middle" x="1066" y="-97.8" font-family="Times New Roman,serif" font-size="14.00">class = No</text>
</g>
<!-- 23&#45;&gt;24 -->
<g id="edge48" class="edge"><title>23&#45;&gt;24</title>
<path fill="none" stroke="black" d="M1066,-193.884C1066,-185.778 1066,-176.982 1066,-168.472"/>
<polygon fill="black" stroke="black" points="1069.5,-168.299 1066,-158.299 1062.5,-168.299 1069.5,-168.299"/>
</g>
<!-- 27 -->
<g id="node54" class="node"><title>27</title>
<polygon fill="#e58139" fill-opacity="0.376471" stroke="black" points="1258,-158 1158,-158 1158,-90 1258,-90 1258,-158"/>
<text text-anchor="middle" x="1208" y="-142.8" font-family="Times New Roman,serif" font-size="14.00">AGE &lt;= 61.25</text>
<text text-anchor="middle" x="1208" y="-127.8" font-family="Times New Roman,serif" font-size="14.00">samples = 13</text>
<text text-anchor="middle" x="1208" y="-112.8" font-family="Times New Roman,serif" font-size="14.00">value = [8, 5]</text>
<text text-anchor="middle" x="1208" y="-97.8" font-family="Times New Roman,serif" font-size="14.00">class = Yes</text>
</g>
<!-- 23&#45;&gt;27 -->
<g id="edge54" class="edge"><title>23&#45;&gt;27</title>
<path fill="none" stroke="black" d="M1112.1,-193.884C1125.25,-184.442 1139.7,-174.064 1153.3,-164.292"/>
<polygon fill="black" stroke="black" points="1155.56,-166.976 1161.64,-158.299 1151.48,-161.291 1155.56,-166.976"/>
</g>
<!-- 25 -->
<g id="node50" class="node"><title>25</title>
<polygon fill="#399de5" stroke="black" points="1035,-53.5 937,-53.5 937,-0.5 1035,-0.5 1035,-53.5"/>
<text text-anchor="middle" x="986" y="-38.3" font-family="Times New Roman,serif" font-size="14.00">samples = 11</text>
<text text-anchor="middle" x="986" y="-23.3" font-family="Times New Roman,serif" font-size="14.00">value = [0, 11]</text>
<text text-anchor="middle" x="986" y="-8.3" font-family="Times New Roman,serif" font-size="14.00">class = No</text>
</g>
<!-- 24&#45;&gt;25 -->
<g id="edge50" class="edge"><title>24&#45;&gt;25</title>
<path fill="none" stroke="black" d="M1038.02,-89.7736C1030.28,-80.5864 1021.89,-70.6138 1014.14,-61.4159"/>
<polygon fill="black" stroke="black" points="1016.65,-58.9662 1007.53,-53.5715 1011.3,-63.4751 1016.65,-58.9662"/>
</g>
<!-- 26 -->
<g id="node52" class="node"><title>26</title>
<polygon fill="none" stroke="black" points="1144.25,-53.5 1053.75,-53.5 1053.75,-0.5 1144.25,-0.5 1144.25,-53.5"/>
<text text-anchor="middle" x="1099" y="-38.3" font-family="Times New Roman,serif" font-size="14.00">samples = 6</text>
<text text-anchor="middle" x="1099" y="-23.3" font-family="Times New Roman,serif" font-size="14.00">value = [3, 3]</text>
<text text-anchor="middle" x="1099" y="-8.3" font-family="Times New Roman,serif" font-size="14.00">class = Yes</text>
</g>
<!-- 24&#45;&gt;26 -->
<g id="edge52" class="edge"><title>24&#45;&gt;26</title>
<path fill="none" stroke="black" d="M1077.54,-89.7736C1080.54,-81.1432 1083.78,-71.8198 1086.81,-63.0965"/>
<polygon fill="black" stroke="black" points="1090.14,-64.1663 1090.12,-53.5715 1083.53,-61.8693 1090.14,-64.1663"/>
</g>
<!-- 28 -->
<g id="node56" class="node"><title>28</title>
<polygon fill="#e58139" stroke="black" points="1253.25,-53.5 1162.75,-53.5 1162.75,-0.5 1253.25,-0.5 1253.25,-53.5"/>
<text text-anchor="middle" x="1208" y="-38.3" font-family="Times New Roman,serif" font-size="14.00">samples = 7</text>
<text text-anchor="middle" x="1208" y="-23.3" font-family="Times New Roman,serif" font-size="14.00">value = [7, 0]</text>
<text text-anchor="middle" x="1208" y="-8.3" font-family="Times New Roman,serif" font-size="14.00">class = Yes</text>
</g>
<!-- 27&#45;&gt;28 -->
<g id="edge56" class="edge"><title>27&#45;&gt;28</title>
<path fill="none" stroke="black" d="M1208,-89.7736C1208,-81.3288 1208,-72.2204 1208,-63.6601"/>
<polygon fill="black" stroke="black" points="1211.5,-63.5715 1208,-53.5715 1204.5,-63.5715 1211.5,-63.5715"/>
</g>
<!-- 29 -->
<g id="node58" class="node"><title>29</title>
<polygon fill="#399de5" fill-opacity="0.800000" stroke="black" points="1362.25,-53.5 1271.75,-53.5 1271.75,-0.5 1362.25,-0.5 1362.25,-53.5"/>
<text text-anchor="middle" x="1317" y="-38.3" font-family="Times New Roman,serif" font-size="14.00">samples = 6</text>
<text text-anchor="middle" x="1317" y="-23.3" font-family="Times New Roman,serif" font-size="14.00">value = [1, 5]</text>
<text text-anchor="middle" x="1317" y="-8.3" font-family="Times New Roman,serif" font-size="14.00">class = No</text>
</g>
<!-- 27&#45;&gt;29 -->
<g id="edge58" class="edge"><title>27&#45;&gt;29</title>
<path fill="none" stroke="black" d="M1246.12,-89.7736C1257.09,-80.2152 1269.03,-69.8067 1279.93,-60.3049"/>
<polygon fill="black" stroke="black" points="1282.42,-62.7804 1287.66,-53.5715 1277.82,-57.5034 1282.42,-62.7804"/>
</g>
<!-- 31 -->
<g id="node62" class="node"><title>31</title>
<polygon fill="#e58139" fill-opacity="0.666667" stroke="black" points="1642.25,-262 1517.75,-262 1517.75,-194 1642.25,-194 1642.25,-262"/>
<text text-anchor="middle" x="1580" y="-246.8" font-family="Times New Roman,serif" font-size="14.00">PTRATIO &lt;= 18.0</text>
<text text-anchor="middle" x="1580" y="-231.8" font-family="Times New Roman,serif" font-size="14.00">samples = 48</text>
<text text-anchor="middle" x="1580" y="-216.8" font-family="Times New Roman,serif" font-size="14.00">value = [36, 12]</text>
<text text-anchor="middle" x="1580" y="-201.8" font-family="Times New Roman,serif" font-size="14.00">class = Yes</text>
</g>
<!-- 30&#45;&gt;31 -->
<g id="edge62" class="edge"><title>30&#45;&gt;31</title>
<path fill="none" stroke="black" d="M1580,-297.884C1580,-289.778 1580,-280.982 1580,-272.472"/>
<polygon fill="black" stroke="black" points="1583.5,-272.299 1580,-262.299 1576.5,-272.299 1583.5,-272.299"/>
</g>
<!-- 38 -->
<g id="node76" class="node"><title>38</title>
<polygon fill="#e58139" fill-opacity="0.964706" stroke="black" points="1815.25,-262 1708.75,-262 1708.75,-194 1815.25,-194 1815.25,-262"/>
<text text-anchor="middle" x="1762" y="-246.8" font-family="Times New Roman,serif" font-size="14.00">CRIM &lt;= 0.147</text>
<text text-anchor="middle" x="1762" y="-231.8" font-family="Times New Roman,serif" font-size="14.00">samples = 114</text>
<text text-anchor="middle" x="1762" y="-216.8" font-family="Times New Roman,serif" font-size="14.00">value = [110, 4]</text>
<text text-anchor="middle" x="1762" y="-201.8" font-family="Times New Roman,serif" font-size="14.00">class = Yes</text>
</g>
<!-- 30&#45;&gt;38 -->
<g id="edge76" class="edge"><title>30&#45;&gt;38</title>
<path fill="none" stroke="black" d="M1639.09,-297.884C1658.53,-286.987 1680.2,-274.844 1699.86,-263.825"/>
<polygon fill="black" stroke="black" points="1701.73,-266.792 1708.74,-258.85 1698.3,-260.686 1701.73,-266.792"/>
</g>
<!-- 32 -->
<g id="node64" class="node"><title>32</title>
<polygon fill="#399de5" fill-opacity="0.200000" stroke="black" points="1579.25,-158 1486.75,-158 1486.75,-90 1579.25,-90 1579.25,-158"/>
<text text-anchor="middle" x="1533" y="-142.8" font-family="Times New Roman,serif" font-size="14.00">RM &lt;= 6.071</text>
<text text-anchor="middle" x="1533" y="-127.8" font-family="Times New Roman,serif" font-size="14.00">samples = 9</text>
<text text-anchor="middle" x="1533" y="-112.8" font-family="Times New Roman,serif" font-size="14.00">value = [4, 5]</text>
<text text-anchor="middle" x="1533" y="-97.8" font-family="Times New Roman,serif" font-size="14.00">class = No</text>
</g>
<!-- 31&#45;&gt;32 -->
<g id="edge64" class="edge"><title>31&#45;&gt;32</title>
<path fill="none" stroke="black" d="M1564.74,-193.884C1560.88,-185.511 1556.68,-176.401 1552.64,-167.631"/>
<polygon fill="black" stroke="black" points="1555.71,-165.917 1548.34,-158.299 1549.35,-168.846 1555.71,-165.917"/>
</g>
<!-- 35 -->
<g id="node70" class="node"><title>35</title>
<polygon fill="#e58139" fill-opacity="0.780392" stroke="black" points="1698.25,-158 1597.75,-158 1597.75,-90 1698.25,-90 1698.25,-158"/>
<text text-anchor="middle" x="1648" y="-142.8" font-family="Times New Roman,serif" font-size="14.00">NOX &lt;= 0.715</text>
<text text-anchor="middle" x="1648" y="-127.8" font-family="Times New Roman,serif" font-size="14.00">samples = 39</text>
<text text-anchor="middle" x="1648" y="-112.8" font-family="Times New Roman,serif" font-size="14.00">value = [32, 7]</text>
<text text-anchor="middle" x="1648" y="-97.8" font-family="Times New Roman,serif" font-size="14.00">class = Yes</text>
</g>
<!-- 31&#45;&gt;35 -->
<g id="edge70" class="edge"><title>31&#45;&gt;35</title>
<path fill="none" stroke="black" d="M1602.08,-193.884C1607.84,-185.243 1614.12,-175.819 1620.14,-166.793"/>
<polygon fill="black" stroke="black" points="1623.17,-168.561 1625.8,-158.299 1617.34,-164.678 1623.17,-168.561"/>
</g>
<!-- 33 -->
<g id="node66" class="node"><title>33</title>
<polygon fill="#e58139" fill-opacity="0.749020" stroke="black" points="1471.25,-53.5 1380.75,-53.5 1380.75,-0.5 1471.25,-0.5 1471.25,-53.5"/>
<text text-anchor="middle" x="1426" y="-38.3" font-family="Times New Roman,serif" font-size="14.00">samples = 5</text>
<text text-anchor="middle" x="1426" y="-23.3" font-family="Times New Roman,serif" font-size="14.00">value = [4, 1]</text>
<text text-anchor="middle" x="1426" y="-8.3" font-family="Times New Roman,serif" font-size="14.00">class = Yes</text>
</g>
<!-- 32&#45;&gt;33 -->
<g id="edge66" class="edge"><title>32&#45;&gt;33</title>
<path fill="none" stroke="black" d="M1495.58,-89.7736C1484.81,-80.2152 1473.09,-69.8067 1462.39,-60.3049"/>
<polygon fill="black" stroke="black" points="1464.6,-57.5935 1454.8,-53.5715 1459.96,-62.8281 1464.6,-57.5935"/>
</g>
<!-- 34 -->
<g id="node68" class="node"><title>34</title>
<polygon fill="#399de5" stroke="black" points="1580.25,-53.5 1489.75,-53.5 1489.75,-0.5 1580.25,-0.5 1580.25,-53.5"/>
<text text-anchor="middle" x="1535" y="-38.3" font-family="Times New Roman,serif" font-size="14.00">samples = 4</text>
<text text-anchor="middle" x="1535" y="-23.3" font-family="Times New Roman,serif" font-size="14.00">value = [0, 4]</text>
<text text-anchor="middle" x="1535" y="-8.3" font-family="Times New Roman,serif" font-size="14.00">class = No</text>
</g>
<!-- 32&#45;&gt;34 -->
<g id="edge68" class="edge"><title>32&#45;&gt;34</title>
<path fill="none" stroke="black" d="M1533.7,-89.7736C1533.88,-81.3288 1534.07,-72.2204 1534.25,-63.6601"/>
<polygon fill="black" stroke="black" points="1537.75,-63.643 1534.46,-53.5715 1530.75,-63.4956 1537.75,-63.643"/>
</g>
<!-- 36 -->
<g id="node72" class="node"><title>36</title>
<polygon fill="#e58139" fill-opacity="0.866667" stroke="black" points="1697,-53.5 1599,-53.5 1599,-0.5 1697,-0.5 1697,-53.5"/>
<text text-anchor="middle" x="1648" y="-38.3" font-family="Times New Roman,serif" font-size="14.00">samples = 34</text>
<text text-anchor="middle" x="1648" y="-23.3" font-family="Times New Roman,serif" font-size="14.00">value = [30, 4]</text>
<text text-anchor="middle" x="1648" y="-8.3" font-family="Times New Roman,serif" font-size="14.00">class = Yes</text>
</g>
<!-- 35&#45;&gt;36 -->
<g id="edge72" class="edge"><title>35&#45;&gt;36</title>
<path fill="none" stroke="black" d="M1648,-89.7736C1648,-81.3288 1648,-72.2204 1648,-63.6601"/>
<polygon fill="black" stroke="black" points="1651.5,-63.5715 1648,-53.5715 1644.5,-63.5715 1651.5,-63.5715"/>
</g>
<!-- 37 -->
<g id="node74" class="node"><title>37</title>
<polygon fill="#399de5" fill-opacity="0.333333" stroke="black" points="1806.25,-53.5 1715.75,-53.5 1715.75,-0.5 1806.25,-0.5 1806.25,-53.5"/>
<text text-anchor="middle" x="1761" y="-38.3" font-family="Times New Roman,serif" font-size="14.00">samples = 5</text>
<text text-anchor="middle" x="1761" y="-23.3" font-family="Times New Roman,serif" font-size="14.00">value = [2, 3]</text>
<text text-anchor="middle" x="1761" y="-8.3" font-family="Times New Roman,serif" font-size="14.00">class = No</text>
</g>
<!-- 35&#45;&gt;37 -->
<g id="edge74" class="edge"><title>35&#45;&gt;37</title>
<path fill="none" stroke="black" d="M1687.52,-89.7736C1699,-80.1224 1711.51,-69.6045 1722.9,-60.0284"/>
<polygon fill="black" stroke="black" points="1725.18,-62.6857 1730.58,-53.5715 1720.68,-57.3276 1725.18,-62.6857"/>
</g>
<!-- 39 -->
<g id="node78" class="node"><title>39</title>
<polygon fill="#e58139" fill-opacity="0.333333" stroke="black" points="1807.25,-150.5 1716.75,-150.5 1716.75,-97.5 1807.25,-97.5 1807.25,-150.5"/>
<text text-anchor="middle" x="1762" y="-135.3" font-family="Times New Roman,serif" font-size="14.00">samples = 5</text>
<text text-anchor="middle" x="1762" y="-120.3" font-family="Times New Roman,serif" font-size="14.00">value = [3, 2]</text>
<text text-anchor="middle" x="1762" y="-105.3" font-family="Times New Roman,serif" font-size="14.00">class = Yes</text>
</g>
<!-- 38&#45;&gt;39 -->
<g id="edge78" class="edge"><title>38&#45;&gt;39</title>
<path fill="none" stroke="black" d="M1762,-193.884C1762,-183.326 1762,-171.597 1762,-160.854"/>
<polygon fill="black" stroke="black" points="1765.5,-160.52 1762,-150.52 1758.5,-160.52 1765.5,-160.52"/>
</g>
<!-- 40 -->
<g id="node80" class="node"><title>40</title>
<polygon fill="#e58139" fill-opacity="0.980392" stroke="black" points="1930,-158 1826,-158 1826,-90 1930,-90 1930,-158"/>
<text text-anchor="middle" x="1878" y="-142.8" font-family="Times New Roman,serif" font-size="14.00">NOX &lt;= 0.513</text>
<text text-anchor="middle" x="1878" y="-127.8" font-family="Times New Roman,serif" font-size="14.00">samples = 109</text>
<text text-anchor="middle" x="1878" y="-112.8" font-family="Times New Roman,serif" font-size="14.00">value = [107, 2]</text>
<text text-anchor="middle" x="1878" y="-97.8" font-family="Times New Roman,serif" font-size="14.00">class = Yes</text>
</g>
<!-- 38&#45;&gt;40 -->
<g id="edge80" class="edge"><title>38&#45;&gt;40</title>
<path fill="none" stroke="black" d="M1799.66,-193.884C1810.1,-184.709 1821.54,-174.65 1832.37,-165.123"/>
<polygon fill="black" stroke="black" points="1834.93,-167.531 1840.13,-158.299 1830.31,-162.274 1834.93,-167.531"/>
</g>
<!-- 41 -->
<g id="node82" class="node"><title>41</title>
<polygon fill="#e58139" fill-opacity="0.600000" stroke="black" points="1919.25,-53.5 1828.75,-53.5 1828.75,-0.5 1919.25,-0.5 1919.25,-53.5"/>
<text text-anchor="middle" x="1874" y="-38.3" font-family="Times New Roman,serif" font-size="14.00">samples = 7</text>
<text text-anchor="middle" x="1874" y="-23.3" font-family="Times New Roman,serif" font-size="14.00">value = [5, 2]</text>
<text text-anchor="middle" x="1874" y="-8.3" font-family="Times New Roman,serif" font-size="14.00">class = Yes</text>
</g>
<!-- 40&#45;&gt;41 -->
<g id="edge82" class="edge"><title>40&#45;&gt;41</title>
<path fill="none" stroke="black" d="M1876.6,-89.7736C1876.25,-81.3288 1875.86,-72.2204 1875.5,-63.6601"/>
<polygon fill="black" stroke="black" points="1878.99,-63.4154 1875.08,-53.5715 1872,-63.7099 1878.99,-63.4154"/>
</g>
<!-- 42 -->
<g id="node84" class="node"><title>42</title>
<polygon fill="#e58139" stroke="black" points="2042,-53.5 1938,-53.5 1938,-0.5 2042,-0.5 2042,-53.5"/>
<text text-anchor="middle" x="1990" y="-38.3" font-family="Times New Roman,serif" font-size="14.00">samples = 102</text>
<text text-anchor="middle" x="1990" y="-23.3" font-family="Times New Roman,serif" font-size="14.00">value = [102, 0]</text>
<text text-anchor="middle" x="1990" y="-8.3" font-family="Times New Roman,serif" font-size="14.00">class = Yes</text>
</g>
<!-- 40&#45;&gt;42 -->
<g id="edge84" class="edge"><title>40&#45;&gt;42</title>
<path fill="none" stroke="black" d="M1917.17,-89.7736C1928.44,-80.2152 1940.71,-69.8067 1951.91,-60.3049"/>
<polygon fill="black" stroke="black" points="1954.49,-62.7093 1959.85,-53.5715 1949.96,-57.371 1954.49,-62.7093"/>
</g>
</g>
</svg>
